M48
;DRILL file {KiCad 4.1.0-alpha+201607041450+6962~46~ubuntu16.04.1-product} date Tue Jul  5 21:20:49 2016
;FORMAT={3:3/ absolute / metric / suppress leading zeros}
FMAT,2
METRIC,TZ
T1C0.400
T2C0.850
T3C0.889
T4C1.300
T5C2.700
%
G90
G05
M71
T1
X140716Y-126746
X141732Y-122936
X148590Y-115316
X153670Y-116625
X153670Y-117475
X154495Y-116625
X154495Y-117475
X155320Y-116625
X155320Y-117475
X155956Y-110744
X156145Y-116625
X156145Y-117475
X157480Y-112268
X165608Y-112014
X167132Y-111252
X168910Y-112014
T2
X142400Y-115610
X142400Y-120610
X168275Y-114300
X168275Y-121800
T3
X142240Y-109855
X142240Y-112395
X144780Y-109855
X144780Y-112395
X146685Y-116840
X146685Y-119380
X147320Y-109855
X147320Y-112395
T4
X139700Y-114610
X139700Y-121610
T5
X151130Y-121444
T0
M30
