G04 #@! TF.FileFunction,Legend,Bot*
%FSLAX46Y46*%
G04 Gerber Fmt 4.6, Leading zero omitted, Abs format (unit mm)*
G04 Created by KiCad (PCBNEW 4.1.0-alpha+201607041450+6962~46~ubuntu16.04.1-product) date Tue Jul  5 21:20:07 2016*
%MOMM*%
%LPD*%
G01*
G04 APERTURE LIST*
%ADD10C,0.100000*%
%ADD11C,0.300000*%
%ADD12C,0.250000*%
%ADD13C,0.200000*%
%ADD14C,0.150000*%
G04 APERTURE END LIST*
D10*
D11*
X158007428Y-113478571D02*
X158007428Y-114692857D01*
X157936000Y-114835714D01*
X157864571Y-114907142D01*
X157721714Y-114978571D01*
X157436000Y-114978571D01*
X157293142Y-114907142D01*
X157221714Y-114835714D01*
X157150285Y-114692857D01*
X157150285Y-113478571D01*
X156507428Y-114907142D02*
X156293142Y-114978571D01*
X155936000Y-114978571D01*
X155793142Y-114907142D01*
X155721714Y-114835714D01*
X155650285Y-114692857D01*
X155650285Y-114550000D01*
X155721714Y-114407142D01*
X155793142Y-114335714D01*
X155936000Y-114264285D01*
X156221714Y-114192857D01*
X156364571Y-114121428D01*
X156436000Y-114050000D01*
X156507428Y-113907142D01*
X156507428Y-113764285D01*
X156436000Y-113621428D01*
X156364571Y-113550000D01*
X156221714Y-113478571D01*
X155864571Y-113478571D01*
X155650285Y-113550000D01*
X155221714Y-113478571D02*
X154364571Y-113478571D01*
X154793142Y-114978571D02*
X154793142Y-113478571D01*
X153864571Y-114835714D02*
X153793142Y-114907142D01*
X153864571Y-114978571D01*
X153936000Y-114907142D01*
X153864571Y-114835714D01*
X153864571Y-114978571D01*
X152507428Y-114907142D02*
X152650285Y-114978571D01*
X152936000Y-114978571D01*
X153078857Y-114907142D01*
X153150285Y-114835714D01*
X153221714Y-114692857D01*
X153221714Y-114264285D01*
X153150285Y-114121428D01*
X153078857Y-114050000D01*
X152936000Y-113978571D01*
X152650285Y-113978571D01*
X152507428Y-114050000D01*
X152007428Y-113978571D02*
X151221714Y-113978571D01*
X152007428Y-114978571D01*
X151221714Y-114978571D01*
X140505571Y-110593285D02*
X139005571Y-110593285D01*
X140505571Y-111307571D02*
X139005571Y-111307571D01*
X140505571Y-112164714D01*
X139005571Y-112164714D01*
X157293000Y-119026714D02*
X157364428Y-119098142D01*
X157578714Y-119169571D01*
X157721571Y-119169571D01*
X157935857Y-119098142D01*
X158078714Y-118955285D01*
X158150142Y-118812428D01*
X158221571Y-118526714D01*
X158221571Y-118312428D01*
X158150142Y-118026714D01*
X158078714Y-117883857D01*
X157935857Y-117741000D01*
X157721571Y-117669571D01*
X157578714Y-117669571D01*
X157364428Y-117741000D01*
X157293000Y-117812428D01*
X156650142Y-119169571D02*
X156650142Y-117669571D01*
X156007285Y-119169571D02*
X156007285Y-118383857D01*
X156078714Y-118241000D01*
X156221571Y-118169571D01*
X156435857Y-118169571D01*
X156578714Y-118241000D01*
X156650142Y-118312428D01*
X154650142Y-119169571D02*
X154650142Y-118383857D01*
X154721571Y-118241000D01*
X154864428Y-118169571D01*
X155150142Y-118169571D01*
X155293000Y-118241000D01*
X154650142Y-119098142D02*
X154793000Y-119169571D01*
X155150142Y-119169571D01*
X155293000Y-119098142D01*
X155364428Y-118955285D01*
X155364428Y-118812428D01*
X155293000Y-118669571D01*
X155150142Y-118598142D01*
X154793000Y-118598142D01*
X154650142Y-118526714D01*
X153935857Y-119169571D02*
X153935857Y-118169571D01*
X153935857Y-118455285D02*
X153864428Y-118312428D01*
X153793000Y-118241000D01*
X153650142Y-118169571D01*
X153507285Y-118169571D01*
X152364428Y-118169571D02*
X152364428Y-119383857D01*
X152435857Y-119526714D01*
X152507285Y-119598142D01*
X152650142Y-119669571D01*
X152864428Y-119669571D01*
X153007285Y-119598142D01*
X152364428Y-119098142D02*
X152507285Y-119169571D01*
X152793000Y-119169571D01*
X152935857Y-119098142D01*
X153007285Y-119026714D01*
X153078714Y-118883857D01*
X153078714Y-118455285D01*
X153007285Y-118312428D01*
X152935857Y-118241000D01*
X152793000Y-118169571D01*
X152507285Y-118169571D01*
X152364428Y-118241000D01*
X151650142Y-119169571D02*
X151650142Y-118169571D01*
X151650142Y-117669571D02*
X151721571Y-117741000D01*
X151650142Y-117812428D01*
X151578714Y-117741000D01*
X151650142Y-117669571D01*
X151650142Y-117812428D01*
X150935857Y-118169571D02*
X150935857Y-119169571D01*
X150935857Y-118312428D02*
X150864428Y-118241000D01*
X150721571Y-118169571D01*
X150507285Y-118169571D01*
X150364428Y-118241000D01*
X150293000Y-118383857D01*
X150293000Y-119169571D01*
X148935857Y-118169571D02*
X148935857Y-119383857D01*
X149007285Y-119526714D01*
X149078714Y-119598142D01*
X149221571Y-119669571D01*
X149435857Y-119669571D01*
X149578714Y-119598142D01*
X148935857Y-119098142D02*
X149078714Y-119169571D01*
X149364428Y-119169571D01*
X149507285Y-119098142D01*
X149578714Y-119026714D01*
X149650142Y-118883857D01*
X149650142Y-118455285D01*
X149578714Y-118312428D01*
X149507285Y-118241000D01*
X149364428Y-118169571D01*
X149078714Y-118169571D01*
X148935857Y-118241000D01*
X158495190Y-126337142D02*
X158571380Y-126418095D01*
X158799952Y-126499047D01*
X158952333Y-126499047D01*
X159180904Y-126418095D01*
X159333285Y-126256190D01*
X159409476Y-126094285D01*
X159485666Y-125770476D01*
X159485666Y-125527619D01*
X159409476Y-125203809D01*
X159333285Y-125041904D01*
X159180904Y-124880000D01*
X158952333Y-124799047D01*
X158799952Y-124799047D01*
X158571380Y-124880000D01*
X158495190Y-124960952D01*
X157885666Y-126013333D02*
X157123761Y-126013333D01*
X158038047Y-126499047D02*
X157504714Y-124799047D01*
X156971380Y-126499047D01*
X156438047Y-126499047D02*
X156438047Y-124799047D01*
X155828523Y-124799047D01*
X155676142Y-124880000D01*
X155599952Y-124960952D01*
X155523761Y-125122857D01*
X155523761Y-125365714D01*
X155599952Y-125527619D01*
X155676142Y-125608571D01*
X155828523Y-125689523D01*
X156438047Y-125689523D01*
X154076142Y-126499047D02*
X154838047Y-126499047D01*
X154838047Y-124799047D01*
X153542809Y-126499047D02*
X153542809Y-124799047D01*
X151942809Y-124880000D02*
X152095190Y-124799047D01*
X152323761Y-124799047D01*
X152552333Y-124880000D01*
X152704714Y-125041904D01*
X152780904Y-125203809D01*
X152857095Y-125527619D01*
X152857095Y-125770476D01*
X152780904Y-126094285D01*
X152704714Y-126256190D01*
X152552333Y-126418095D01*
X152323761Y-126499047D01*
X152171380Y-126499047D01*
X151942809Y-126418095D01*
X151866619Y-126337142D01*
X151866619Y-125770476D01*
X152171380Y-125770476D01*
X151180904Y-126499047D02*
X151180904Y-124799047D01*
X151180904Y-125608571D02*
X150266619Y-125608571D01*
X150266619Y-126499047D02*
X150266619Y-124799047D01*
X149733285Y-124799047D02*
X148819000Y-124799047D01*
X149276142Y-126499047D02*
X149276142Y-124799047D01*
X147980904Y-124799047D02*
X147828523Y-124799047D01*
X147676142Y-124880000D01*
X147599952Y-124960952D01*
X147523761Y-125122857D01*
X147447571Y-125446666D01*
X147447571Y-125851428D01*
X147523761Y-126175238D01*
X147599952Y-126337142D01*
X147676142Y-126418095D01*
X147828523Y-126499047D01*
X147980904Y-126499047D01*
X148133285Y-126418095D01*
X148209476Y-126337142D01*
X148285666Y-126175238D01*
X148361857Y-125851428D01*
X148361857Y-125446666D01*
X148285666Y-125122857D01*
X148209476Y-124960952D01*
X148133285Y-124880000D01*
X147980904Y-124799047D01*
X145923761Y-126499047D02*
X146838047Y-126499047D01*
X146380904Y-126499047D02*
X146380904Y-124799047D01*
X146533285Y-125041904D01*
X146685666Y-125203809D01*
X146838047Y-125284761D01*
X145314238Y-126013333D02*
X144552333Y-126013333D01*
X145466619Y-126499047D02*
X144933285Y-124799047D01*
X144399952Y-126499047D01*
D12*
X147329428Y-115223857D02*
X147900857Y-115223857D01*
X147900857Y-114023857D01*
X146929428Y-114595285D02*
X146529428Y-114595285D01*
X146358000Y-115223857D02*
X146929428Y-115223857D01*
X146929428Y-114023857D01*
X146358000Y-114023857D01*
X145843714Y-115223857D02*
X145843714Y-114023857D01*
X145558000Y-114023857D01*
X145386571Y-114081000D01*
X145272285Y-114195285D01*
X145215142Y-114309571D01*
X145158000Y-114538142D01*
X145158000Y-114709571D01*
X145215142Y-114938142D01*
X145272285Y-115052428D01*
X145386571Y-115166714D01*
X145558000Y-115223857D01*
X145843714Y-115223857D01*
D13*
X147828000Y-115824000D02*
X145542000Y-115824000D01*
X147828000Y-120396000D02*
X147828000Y-115824000D01*
X145542000Y-120396000D02*
X147828000Y-120396000D01*
X145542000Y-115824000D02*
X145542000Y-120396000D01*
X141224000Y-113284000D02*
X141224000Y-108712000D01*
X148336000Y-113284000D02*
X141224000Y-113284000D01*
X148336000Y-108712000D02*
X148336000Y-113284000D01*
X141224000Y-108712000D02*
X148336000Y-108712000D01*
D11*
X168681304Y-125034657D02*
X167157495Y-125034657D01*
X167919400Y-125796561D02*
X167919400Y-124272752D01*
D14*
X176275000Y-117975000D02*
X160275000Y-117975000D01*
X176272000Y-117835000D02*
X160278000Y-117835000D01*
X176267000Y-117695000D02*
X160283000Y-117695000D01*
X176260000Y-117555000D02*
X160290000Y-117555000D01*
X176250000Y-117415000D02*
X160300000Y-117415000D01*
X176237000Y-117275000D02*
X160313000Y-117275000D01*
X176223000Y-117135000D02*
X160327000Y-117135000D01*
X176205000Y-116995000D02*
X160345000Y-116995000D01*
X176185000Y-116855000D02*
X160365000Y-116855000D01*
X176163000Y-116715000D02*
X160387000Y-116715000D01*
X176138000Y-116575000D02*
X160412000Y-116575000D01*
X176110000Y-116435000D02*
X160440000Y-116435000D01*
X176080000Y-116295000D02*
X160470000Y-116295000D01*
X176047000Y-116155000D02*
X160503000Y-116155000D01*
X176012000Y-116015000D02*
X160538000Y-116015000D01*
X175974000Y-115875000D02*
X160576000Y-115875000D01*
X175933000Y-115735000D02*
X160617000Y-115735000D01*
X175889000Y-115595000D02*
X160661000Y-115595000D01*
X175842000Y-115455000D02*
X160708000Y-115455000D01*
X175793000Y-115315000D02*
X160757000Y-115315000D01*
X175741000Y-115175000D02*
X168759000Y-115175000D01*
X167791000Y-115175000D02*
X160809000Y-115175000D01*
X175685000Y-115035000D02*
X168953000Y-115035000D01*
X167597000Y-115035000D02*
X160865000Y-115035000D01*
X175627000Y-114895000D02*
X169079000Y-114895000D01*
X167471000Y-114895000D02*
X160923000Y-114895000D01*
X175565000Y-114755000D02*
X169165000Y-114755000D01*
X167385000Y-114755000D02*
X160985000Y-114755000D01*
X175500000Y-114615000D02*
X169224000Y-114615000D01*
X167326000Y-114615000D02*
X161050000Y-114615000D01*
X175432000Y-114475000D02*
X169260000Y-114475000D01*
X167290000Y-114475000D02*
X161118000Y-114475000D01*
X175360000Y-114335000D02*
X169274000Y-114335000D01*
X167276000Y-114335000D02*
X161190000Y-114335000D01*
X175285000Y-114195000D02*
X169269000Y-114195000D01*
X167281000Y-114195000D02*
X161265000Y-114195000D01*
X175206000Y-114055000D02*
X169245000Y-114055000D01*
X167305000Y-114055000D02*
X161344000Y-114055000D01*
X175123000Y-113915000D02*
X169198000Y-113915000D01*
X167352000Y-113915000D02*
X161427000Y-113915000D01*
X175037000Y-113775000D02*
X169126000Y-113775000D01*
X167424000Y-113775000D02*
X161513000Y-113775000D01*
X174946000Y-113635000D02*
X169022000Y-113635000D01*
X167528000Y-113635000D02*
X161604000Y-113635000D01*
X174852000Y-113495000D02*
X168868000Y-113495000D01*
X167682000Y-113495000D02*
X161698000Y-113495000D01*
X174752000Y-113355000D02*
X168602000Y-113355000D01*
X167948000Y-113355000D02*
X161798000Y-113355000D01*
X174649000Y-113215000D02*
X161901000Y-113215000D01*
X174540000Y-113075000D02*
X162010000Y-113075000D01*
X174426000Y-112935000D02*
X162124000Y-112935000D01*
X174307000Y-112795000D02*
X162243000Y-112795000D01*
X174182000Y-112655000D02*
X162368000Y-112655000D01*
X174051000Y-112515000D02*
X162499000Y-112515000D01*
X173914000Y-112375000D02*
X162636000Y-112375000D01*
X173769000Y-112235000D02*
X162781000Y-112235000D01*
X173617000Y-112095000D02*
X162933000Y-112095000D01*
X173457000Y-111955000D02*
X163093000Y-111955000D01*
X173287000Y-111815000D02*
X163263000Y-111815000D01*
X173108000Y-111675000D02*
X163442000Y-111675000D01*
X172918000Y-111535000D02*
X163632000Y-111535000D01*
X172715000Y-111395000D02*
X163835000Y-111395000D01*
X172497000Y-111255000D02*
X164053000Y-111255000D01*
X172263000Y-111115000D02*
X164287000Y-111115000D01*
X172009000Y-110975000D02*
X164541000Y-110975000D01*
X171731000Y-110835000D02*
X164819000Y-110835000D01*
X171422000Y-110695000D02*
X165128000Y-110695000D01*
X171072000Y-110555000D02*
X165478000Y-110555000D01*
X170664000Y-110415000D02*
X165886000Y-110415000D01*
X170159000Y-110275000D02*
X166391000Y-110275000D01*
X169438000Y-110135000D02*
X167112000Y-110135000D01*
X169275000Y-114300000D02*
G75*
G03X169275000Y-114300000I-1000000J0D01*
G01*
X176312500Y-118050000D02*
G75*
G03X176312500Y-118050000I-8037500J0D01*
G01*
X177932142Y-117883333D02*
X177979761Y-117835714D01*
X178027380Y-117692857D01*
X178027380Y-117597619D01*
X177979761Y-117454761D01*
X177884523Y-117359523D01*
X177789285Y-117311904D01*
X177598809Y-117264285D01*
X177455952Y-117264285D01*
X177265476Y-117311904D01*
X177170238Y-117359523D01*
X177075000Y-117454761D01*
X177027380Y-117597619D01*
X177027380Y-117692857D01*
X177075000Y-117835714D01*
X177122619Y-117883333D01*
X177027380Y-118216666D02*
X177027380Y-118835714D01*
X177408333Y-118502380D01*
X177408333Y-118645238D01*
X177455952Y-118740476D01*
X177503571Y-118788095D01*
X177598809Y-118835714D01*
X177836904Y-118835714D01*
X177932142Y-118788095D01*
X177979761Y-118740476D01*
X178027380Y-118645238D01*
X178027380Y-118359523D01*
X177979761Y-118264285D01*
X177932142Y-118216666D01*
X165842142Y-121266671D02*
X165842142Y-122409528D01*
X166413571Y-121838100D02*
X165270714Y-121838100D01*
M02*
