G04 #@! TF.FileFunction,Legend,Bot*
%FSLAX46Y46*%
G04 Gerber Fmt 4.6, Leading zero omitted, Abs format (unit mm)*
G04 Created by KiCad (PCBNEW 4.1.0-alpha+201607051515+6967~46~ubuntu16.04.1-product) date Wed Jul  6 09:47:41 2016*
%MOMM*%
%LPD*%
G01*
G04 APERTURE LIST*
%ADD10C,0.100000*%
%ADD11C,0.300000*%
%ADD12C,0.250000*%
%ADD13C,0.200000*%
%ADD14C,0.150000*%
G04 APERTURE END LIST*
D10*
D11*
X158769428Y-113351571D02*
X158769428Y-114565857D01*
X158698000Y-114708714D01*
X158626571Y-114780142D01*
X158483714Y-114851571D01*
X158198000Y-114851571D01*
X158055142Y-114780142D01*
X157983714Y-114708714D01*
X157912285Y-114565857D01*
X157912285Y-113351571D01*
X157269428Y-114780142D02*
X157055142Y-114851571D01*
X156698000Y-114851571D01*
X156555142Y-114780142D01*
X156483714Y-114708714D01*
X156412285Y-114565857D01*
X156412285Y-114423000D01*
X156483714Y-114280142D01*
X156555142Y-114208714D01*
X156698000Y-114137285D01*
X156983714Y-114065857D01*
X157126571Y-113994428D01*
X157198000Y-113923000D01*
X157269428Y-113780142D01*
X157269428Y-113637285D01*
X157198000Y-113494428D01*
X157126571Y-113423000D01*
X156983714Y-113351571D01*
X156626571Y-113351571D01*
X156412285Y-113423000D01*
X155983714Y-113351571D02*
X155126571Y-113351571D01*
X155555142Y-114851571D02*
X155555142Y-113351571D01*
X154626571Y-114708714D02*
X154555142Y-114780142D01*
X154626571Y-114851571D01*
X154698000Y-114780142D01*
X154626571Y-114708714D01*
X154626571Y-114851571D01*
X153269428Y-114780142D02*
X153412285Y-114851571D01*
X153698000Y-114851571D01*
X153840857Y-114780142D01*
X153912285Y-114708714D01*
X153983714Y-114565857D01*
X153983714Y-114137285D01*
X153912285Y-113994428D01*
X153840857Y-113923000D01*
X153698000Y-113851571D01*
X153412285Y-113851571D01*
X153269428Y-113923000D01*
X152769428Y-113851571D02*
X151983714Y-113851571D01*
X152769428Y-114851571D01*
X151983714Y-114851571D01*
X140505571Y-110593285D02*
X139005571Y-110593285D01*
X140505571Y-111307571D02*
X139005571Y-111307571D01*
X140505571Y-112164714D01*
X139005571Y-112164714D01*
X162246000Y-121693714D02*
X162317428Y-121765142D01*
X162531714Y-121836571D01*
X162674571Y-121836571D01*
X162888857Y-121765142D01*
X163031714Y-121622285D01*
X163103142Y-121479428D01*
X163174571Y-121193714D01*
X163174571Y-120979428D01*
X163103142Y-120693714D01*
X163031714Y-120550857D01*
X162888857Y-120408000D01*
X162674571Y-120336571D01*
X162531714Y-120336571D01*
X162317428Y-120408000D01*
X162246000Y-120479428D01*
X161603142Y-121836571D02*
X161603142Y-120336571D01*
X160960285Y-121836571D02*
X160960285Y-121050857D01*
X161031714Y-120908000D01*
X161174571Y-120836571D01*
X161388857Y-120836571D01*
X161531714Y-120908000D01*
X161603142Y-120979428D01*
X159603142Y-121836571D02*
X159603142Y-121050857D01*
X159674571Y-120908000D01*
X159817428Y-120836571D01*
X160103142Y-120836571D01*
X160246000Y-120908000D01*
X159603142Y-121765142D02*
X159746000Y-121836571D01*
X160103142Y-121836571D01*
X160246000Y-121765142D01*
X160317428Y-121622285D01*
X160317428Y-121479428D01*
X160246000Y-121336571D01*
X160103142Y-121265142D01*
X159746000Y-121265142D01*
X159603142Y-121193714D01*
X158888857Y-121836571D02*
X158888857Y-120836571D01*
X158888857Y-121122285D02*
X158817428Y-120979428D01*
X158746000Y-120908000D01*
X158603142Y-120836571D01*
X158460285Y-120836571D01*
X157317428Y-120836571D02*
X157317428Y-122050857D01*
X157388857Y-122193714D01*
X157460285Y-122265142D01*
X157603142Y-122336571D01*
X157817428Y-122336571D01*
X157960285Y-122265142D01*
X157317428Y-121765142D02*
X157460285Y-121836571D01*
X157746000Y-121836571D01*
X157888857Y-121765142D01*
X157960285Y-121693714D01*
X158031714Y-121550857D01*
X158031714Y-121122285D01*
X157960285Y-120979428D01*
X157888857Y-120908000D01*
X157746000Y-120836571D01*
X157460285Y-120836571D01*
X157317428Y-120908000D01*
X156603142Y-121836571D02*
X156603142Y-120836571D01*
X156603142Y-120336571D02*
X156674571Y-120408000D01*
X156603142Y-120479428D01*
X156531714Y-120408000D01*
X156603142Y-120336571D01*
X156603142Y-120479428D01*
X155888857Y-120836571D02*
X155888857Y-121836571D01*
X155888857Y-120979428D02*
X155817428Y-120908000D01*
X155674571Y-120836571D01*
X155460285Y-120836571D01*
X155317428Y-120908000D01*
X155246000Y-121050857D01*
X155246000Y-121836571D01*
X153888857Y-120836571D02*
X153888857Y-122050857D01*
X153960285Y-122193714D01*
X154031714Y-122265142D01*
X154174571Y-122336571D01*
X154388857Y-122336571D01*
X154531714Y-122265142D01*
X153888857Y-121765142D02*
X154031714Y-121836571D01*
X154317428Y-121836571D01*
X154460285Y-121765142D01*
X154531714Y-121693714D01*
X154603142Y-121550857D01*
X154603142Y-121122285D01*
X154531714Y-120979428D01*
X154460285Y-120908000D01*
X154317428Y-120836571D01*
X154031714Y-120836571D01*
X153888857Y-120908000D01*
X158495190Y-126337142D02*
X158571380Y-126418095D01*
X158799952Y-126499047D01*
X158952333Y-126499047D01*
X159180904Y-126418095D01*
X159333285Y-126256190D01*
X159409476Y-126094285D01*
X159485666Y-125770476D01*
X159485666Y-125527619D01*
X159409476Y-125203809D01*
X159333285Y-125041904D01*
X159180904Y-124880000D01*
X158952333Y-124799047D01*
X158799952Y-124799047D01*
X158571380Y-124880000D01*
X158495190Y-124960952D01*
X157885666Y-126013333D02*
X157123761Y-126013333D01*
X158038047Y-126499047D02*
X157504714Y-124799047D01*
X156971380Y-126499047D01*
X156438047Y-126499047D02*
X156438047Y-124799047D01*
X155828523Y-124799047D01*
X155676142Y-124880000D01*
X155599952Y-124960952D01*
X155523761Y-125122857D01*
X155523761Y-125365714D01*
X155599952Y-125527619D01*
X155676142Y-125608571D01*
X155828523Y-125689523D01*
X156438047Y-125689523D01*
X154076142Y-126499047D02*
X154838047Y-126499047D01*
X154838047Y-124799047D01*
X153542809Y-126499047D02*
X153542809Y-124799047D01*
X151942809Y-124880000D02*
X152095190Y-124799047D01*
X152323761Y-124799047D01*
X152552333Y-124880000D01*
X152704714Y-125041904D01*
X152780904Y-125203809D01*
X152857095Y-125527619D01*
X152857095Y-125770476D01*
X152780904Y-126094285D01*
X152704714Y-126256190D01*
X152552333Y-126418095D01*
X152323761Y-126499047D01*
X152171380Y-126499047D01*
X151942809Y-126418095D01*
X151866619Y-126337142D01*
X151866619Y-125770476D01*
X152171380Y-125770476D01*
X151180904Y-126499047D02*
X151180904Y-124799047D01*
X151180904Y-125608571D02*
X150266619Y-125608571D01*
X150266619Y-126499047D02*
X150266619Y-124799047D01*
X149733285Y-124799047D02*
X148819000Y-124799047D01*
X149276142Y-126499047D02*
X149276142Y-124799047D01*
X147980904Y-124799047D02*
X147828523Y-124799047D01*
X147676142Y-124880000D01*
X147599952Y-124960952D01*
X147523761Y-125122857D01*
X147447571Y-125446666D01*
X147447571Y-125851428D01*
X147523761Y-126175238D01*
X147599952Y-126337142D01*
X147676142Y-126418095D01*
X147828523Y-126499047D01*
X147980904Y-126499047D01*
X148133285Y-126418095D01*
X148209476Y-126337142D01*
X148285666Y-126175238D01*
X148361857Y-125851428D01*
X148361857Y-125446666D01*
X148285666Y-125122857D01*
X148209476Y-124960952D01*
X148133285Y-124880000D01*
X147980904Y-124799047D01*
X145923761Y-126499047D02*
X146838047Y-126499047D01*
X146380904Y-126499047D02*
X146380904Y-124799047D01*
X146533285Y-125041904D01*
X146685666Y-125203809D01*
X146838047Y-125284761D01*
X145314238Y-126013333D02*
X144552333Y-126013333D01*
X145466619Y-126499047D02*
X144933285Y-124799047D01*
X144399952Y-126499047D01*
D12*
X152028428Y-118525857D02*
X152599857Y-118525857D01*
X152599857Y-117325857D01*
X151628428Y-117897285D02*
X151228428Y-117897285D01*
X151057000Y-118525857D02*
X151628428Y-118525857D01*
X151628428Y-117325857D01*
X151057000Y-117325857D01*
X150542714Y-118525857D02*
X150542714Y-117325857D01*
X150257000Y-117325857D01*
X150085571Y-117383000D01*
X149971285Y-117497285D01*
X149914142Y-117611571D01*
X149857000Y-117840142D01*
X149857000Y-118011571D01*
X149914142Y-118240142D01*
X149971285Y-118354428D01*
X150085571Y-118468714D01*
X150257000Y-118525857D01*
X150542714Y-118525857D01*
D13*
X147828000Y-115824000D02*
X145542000Y-115824000D01*
X147828000Y-120396000D02*
X147828000Y-115824000D01*
X145542000Y-120396000D02*
X147828000Y-120396000D01*
X145542000Y-115824000D02*
X145542000Y-120396000D01*
X141224000Y-113284000D02*
X141224000Y-108712000D01*
X148336000Y-113284000D02*
X141224000Y-113284000D01*
X148336000Y-108712000D02*
X148336000Y-113284000D01*
X141224000Y-108712000D02*
X148336000Y-108712000D01*
D11*
X168681304Y-125034657D02*
X167157495Y-125034657D01*
X167919400Y-125796561D02*
X167919400Y-124272752D01*
D14*
X169275000Y-114300000D02*
G75*
G03X169275000Y-114300000I-1000000J0D01*
G01*
X168378142Y-117562333D02*
X168425761Y-117514714D01*
X168473380Y-117371857D01*
X168473380Y-117276619D01*
X168425761Y-117133761D01*
X168330523Y-117038523D01*
X168235285Y-116990904D01*
X168044809Y-116943285D01*
X167901952Y-116943285D01*
X167711476Y-116990904D01*
X167616238Y-117038523D01*
X167521000Y-117133761D01*
X167473380Y-117276619D01*
X167473380Y-117371857D01*
X167521000Y-117514714D01*
X167568619Y-117562333D01*
X167473380Y-117895666D02*
X167473380Y-118514714D01*
X167854333Y-118181380D01*
X167854333Y-118324238D01*
X167901952Y-118419476D01*
X167949571Y-118467095D01*
X168044809Y-118514714D01*
X168282904Y-118514714D01*
X168378142Y-118467095D01*
X168425761Y-118419476D01*
X168473380Y-118324238D01*
X168473380Y-118038523D01*
X168425761Y-117943285D01*
X168378142Y-117895666D01*
X165842142Y-121266671D02*
X165842142Y-122409528D01*
X166413571Y-121838100D02*
X165270714Y-121838100D01*
M02*
