G04 #@! TF.FileFunction,Soldermask,Top*
%FSLAX46Y46*%
G04 Gerber Fmt 4.6, Leading zero omitted, Abs format (unit mm)*
G04 Created by KiCad (PCBNEW 4.1.0-alpha+201607051515+6967~46~ubuntu16.04.1-product) date Wed Jul  6 09:47:41 2016*
%MOMM*%
%LPD*%
G01*
G04 APERTURE LIST*
%ADD10C,0.100000*%
%ADD11R,5.000000X3.000000*%
%ADD12R,0.250000X0.700000*%
%ADD13R,0.825000X0.850000*%
%ADD14R,2.550160X2.499360*%
%ADD15R,3.000000X3.000000*%
%ADD16C,1.450000*%
%ADD17C,1.900000*%
%ADD18R,1.397000X0.889000*%
%ADD19R,2.499360X1.800860*%
%ADD20R,1.524000X1.524000*%
%ADD21R,0.889000X1.397000*%
%ADD22R,1.500000X1.050000*%
%ADD23C,2.700000*%
%ADD24R,2.032000X1.524000*%
G04 APERTURE END LIST*
D10*
D11*
X167775000Y-121800000D03*
X167775000Y-114300000D03*
D12*
X156157500Y-115600000D03*
X155657500Y-115600000D03*
X155157500Y-115600000D03*
X154657500Y-115600000D03*
X154157500Y-115600000D03*
X153657500Y-115600000D03*
X153657500Y-118500000D03*
X154157500Y-118500000D03*
X154657500Y-118500000D03*
X155157500Y-118500000D03*
X155657500Y-118500000D03*
X156157500Y-118500000D03*
D13*
X153670000Y-117475000D03*
X154495000Y-117475000D03*
X155320000Y-117475000D03*
X156145000Y-117475000D03*
X153670000Y-116625000D03*
X154495000Y-116625000D03*
X155320000Y-116625000D03*
X156145000Y-116625000D03*
D14*
X154335480Y-123190000D03*
X159385000Y-123190000D03*
D15*
X161290000Y-112124000D03*
X161290000Y-119524000D03*
D16*
X142400000Y-115610000D03*
X142400000Y-120610000D03*
D10*
G36*
X141725000Y-117910000D02*
X143075000Y-117910000D01*
X143075000Y-118310000D01*
X141725000Y-118310000D01*
X141725000Y-117910000D01*
X141725000Y-117910000D01*
G37*
G36*
X141725000Y-117260000D02*
X143075000Y-117260000D01*
X143075000Y-117660000D01*
X141725000Y-117660000D01*
X141725000Y-117260000D01*
X141725000Y-117260000D01*
G37*
G36*
X141725000Y-116610000D02*
X143075000Y-116610000D01*
X143075000Y-117010000D01*
X141725000Y-117010000D01*
X141725000Y-116610000D01*
X141725000Y-116610000D01*
G37*
G36*
X141725000Y-118560000D02*
X143075000Y-118560000D01*
X143075000Y-118960000D01*
X141725000Y-118960000D01*
X141725000Y-118560000D01*
X141725000Y-118560000D01*
G37*
G36*
X141725000Y-119210000D02*
X143075000Y-119210000D01*
X143075000Y-119610000D01*
X141725000Y-119610000D01*
X141725000Y-119210000D01*
X141725000Y-119210000D01*
G37*
G36*
X138750000Y-116360000D02*
X140650000Y-116360000D01*
X140650000Y-117860000D01*
X138750000Y-117860000D01*
X138750000Y-116360000D01*
X138750000Y-116360000D01*
G37*
G36*
X138750000Y-118360000D02*
X140650000Y-118360000D01*
X140650000Y-119860000D01*
X138750000Y-119860000D01*
X138750000Y-118360000D01*
X138750000Y-118360000D01*
G37*
D17*
X139700000Y-121610000D03*
X139700000Y-114610000D03*
D18*
X155956000Y-113728500D03*
X155956000Y-111823500D03*
D19*
X140335000Y-125095000D03*
X144332960Y-125095000D03*
D20*
X146685000Y-119380000D03*
X146685000Y-116840000D03*
X142240000Y-112395000D03*
X142240000Y-109855000D03*
X144780000Y-112395000D03*
X144780000Y-109855000D03*
X147320000Y-112395000D03*
X147320000Y-109855000D03*
D18*
X153670000Y-113220500D03*
X153670000Y-111315500D03*
D21*
X151765000Y-115570000D03*
X149860000Y-115570000D03*
D22*
X151130000Y-123444000D03*
X151130000Y-119444000D03*
D23*
X151130000Y-121444000D03*
D18*
X148971000Y-117602000D03*
X148971000Y-119507000D03*
D24*
X147193000Y-125476000D03*
X147193000Y-122174000D03*
M02*
