G04 #@! TF.FileFunction,Legend,Bot*
%FSLAX46Y46*%
G04 Gerber Fmt 4.6, Leading zero omitted, Abs format (unit mm)*
G04 Created by KiCad (PCBNEW 4.1.0-alpha+201607051515+6967~46~ubuntu16.04.1-product) date Wed Jul  6 09:46:09 2016*
%MOMM*%
%LPD*%
G01*
G04 APERTURE LIST*
%ADD10C,0.100000*%
%ADD11C,0.300000*%
%ADD12C,0.250000*%
%ADD13C,0.200000*%
%ADD14C,0.150000*%
G04 APERTURE END LIST*
D10*
D11*
X158007428Y-113478571D02*
X158007428Y-114692857D01*
X157936000Y-114835714D01*
X157864571Y-114907142D01*
X157721714Y-114978571D01*
X157436000Y-114978571D01*
X157293142Y-114907142D01*
X157221714Y-114835714D01*
X157150285Y-114692857D01*
X157150285Y-113478571D01*
X156507428Y-114907142D02*
X156293142Y-114978571D01*
X155936000Y-114978571D01*
X155793142Y-114907142D01*
X155721714Y-114835714D01*
X155650285Y-114692857D01*
X155650285Y-114550000D01*
X155721714Y-114407142D01*
X155793142Y-114335714D01*
X155936000Y-114264285D01*
X156221714Y-114192857D01*
X156364571Y-114121428D01*
X156436000Y-114050000D01*
X156507428Y-113907142D01*
X156507428Y-113764285D01*
X156436000Y-113621428D01*
X156364571Y-113550000D01*
X156221714Y-113478571D01*
X155864571Y-113478571D01*
X155650285Y-113550000D01*
X155221714Y-113478571D02*
X154364571Y-113478571D01*
X154793142Y-114978571D02*
X154793142Y-113478571D01*
X153864571Y-114835714D02*
X153793142Y-114907142D01*
X153864571Y-114978571D01*
X153936000Y-114907142D01*
X153864571Y-114835714D01*
X153864571Y-114978571D01*
X152507428Y-114907142D02*
X152650285Y-114978571D01*
X152936000Y-114978571D01*
X153078857Y-114907142D01*
X153150285Y-114835714D01*
X153221714Y-114692857D01*
X153221714Y-114264285D01*
X153150285Y-114121428D01*
X153078857Y-114050000D01*
X152936000Y-113978571D01*
X152650285Y-113978571D01*
X152507428Y-114050000D01*
X152007428Y-113978571D02*
X151221714Y-113978571D01*
X152007428Y-114978571D01*
X151221714Y-114978571D01*
X140505571Y-110593285D02*
X139005571Y-110593285D01*
X140505571Y-111307571D02*
X139005571Y-111307571D01*
X140505571Y-112164714D01*
X139005571Y-112164714D01*
X157293000Y-119026714D02*
X157364428Y-119098142D01*
X157578714Y-119169571D01*
X157721571Y-119169571D01*
X157935857Y-119098142D01*
X158078714Y-118955285D01*
X158150142Y-118812428D01*
X158221571Y-118526714D01*
X158221571Y-118312428D01*
X158150142Y-118026714D01*
X158078714Y-117883857D01*
X157935857Y-117741000D01*
X157721571Y-117669571D01*
X157578714Y-117669571D01*
X157364428Y-117741000D01*
X157293000Y-117812428D01*
X156650142Y-119169571D02*
X156650142Y-117669571D01*
X156007285Y-119169571D02*
X156007285Y-118383857D01*
X156078714Y-118241000D01*
X156221571Y-118169571D01*
X156435857Y-118169571D01*
X156578714Y-118241000D01*
X156650142Y-118312428D01*
X154650142Y-119169571D02*
X154650142Y-118383857D01*
X154721571Y-118241000D01*
X154864428Y-118169571D01*
X155150142Y-118169571D01*
X155293000Y-118241000D01*
X154650142Y-119098142D02*
X154793000Y-119169571D01*
X155150142Y-119169571D01*
X155293000Y-119098142D01*
X155364428Y-118955285D01*
X155364428Y-118812428D01*
X155293000Y-118669571D01*
X155150142Y-118598142D01*
X154793000Y-118598142D01*
X154650142Y-118526714D01*
X153935857Y-119169571D02*
X153935857Y-118169571D01*
X153935857Y-118455285D02*
X153864428Y-118312428D01*
X153793000Y-118241000D01*
X153650142Y-118169571D01*
X153507285Y-118169571D01*
X152364428Y-118169571D02*
X152364428Y-119383857D01*
X152435857Y-119526714D01*
X152507285Y-119598142D01*
X152650142Y-119669571D01*
X152864428Y-119669571D01*
X153007285Y-119598142D01*
X152364428Y-119098142D02*
X152507285Y-119169571D01*
X152793000Y-119169571D01*
X152935857Y-119098142D01*
X153007285Y-119026714D01*
X153078714Y-118883857D01*
X153078714Y-118455285D01*
X153007285Y-118312428D01*
X152935857Y-118241000D01*
X152793000Y-118169571D01*
X152507285Y-118169571D01*
X152364428Y-118241000D01*
X151650142Y-119169571D02*
X151650142Y-118169571D01*
X151650142Y-117669571D02*
X151721571Y-117741000D01*
X151650142Y-117812428D01*
X151578714Y-117741000D01*
X151650142Y-117669571D01*
X151650142Y-117812428D01*
X150935857Y-118169571D02*
X150935857Y-119169571D01*
X150935857Y-118312428D02*
X150864428Y-118241000D01*
X150721571Y-118169571D01*
X150507285Y-118169571D01*
X150364428Y-118241000D01*
X150293000Y-118383857D01*
X150293000Y-119169571D01*
X148935857Y-118169571D02*
X148935857Y-119383857D01*
X149007285Y-119526714D01*
X149078714Y-119598142D01*
X149221571Y-119669571D01*
X149435857Y-119669571D01*
X149578714Y-119598142D01*
X148935857Y-119098142D02*
X149078714Y-119169571D01*
X149364428Y-119169571D01*
X149507285Y-119098142D01*
X149578714Y-119026714D01*
X149650142Y-118883857D01*
X149650142Y-118455285D01*
X149578714Y-118312428D01*
X149507285Y-118241000D01*
X149364428Y-118169571D01*
X149078714Y-118169571D01*
X148935857Y-118241000D01*
X158495190Y-126337142D02*
X158571380Y-126418095D01*
X158799952Y-126499047D01*
X158952333Y-126499047D01*
X159180904Y-126418095D01*
X159333285Y-126256190D01*
X159409476Y-126094285D01*
X159485666Y-125770476D01*
X159485666Y-125527619D01*
X159409476Y-125203809D01*
X159333285Y-125041904D01*
X159180904Y-124880000D01*
X158952333Y-124799047D01*
X158799952Y-124799047D01*
X158571380Y-124880000D01*
X158495190Y-124960952D01*
X157885666Y-126013333D02*
X157123761Y-126013333D01*
X158038047Y-126499047D02*
X157504714Y-124799047D01*
X156971380Y-126499047D01*
X156438047Y-126499047D02*
X156438047Y-124799047D01*
X155828523Y-124799047D01*
X155676142Y-124880000D01*
X155599952Y-124960952D01*
X155523761Y-125122857D01*
X155523761Y-125365714D01*
X155599952Y-125527619D01*
X155676142Y-125608571D01*
X155828523Y-125689523D01*
X156438047Y-125689523D01*
X154076142Y-126499047D02*
X154838047Y-126499047D01*
X154838047Y-124799047D01*
X153542809Y-126499047D02*
X153542809Y-124799047D01*
X151942809Y-124880000D02*
X152095190Y-124799047D01*
X152323761Y-124799047D01*
X152552333Y-124880000D01*
X152704714Y-125041904D01*
X152780904Y-125203809D01*
X152857095Y-125527619D01*
X152857095Y-125770476D01*
X152780904Y-126094285D01*
X152704714Y-126256190D01*
X152552333Y-126418095D01*
X152323761Y-126499047D01*
X152171380Y-126499047D01*
X151942809Y-126418095D01*
X151866619Y-126337142D01*
X151866619Y-125770476D01*
X152171380Y-125770476D01*
X151180904Y-126499047D02*
X151180904Y-124799047D01*
X151180904Y-125608571D02*
X150266619Y-125608571D01*
X150266619Y-126499047D02*
X150266619Y-124799047D01*
X149733285Y-124799047D02*
X148819000Y-124799047D01*
X149276142Y-126499047D02*
X149276142Y-124799047D01*
X147980904Y-124799047D02*
X147828523Y-124799047D01*
X147676142Y-124880000D01*
X147599952Y-124960952D01*
X147523761Y-125122857D01*
X147447571Y-125446666D01*
X147447571Y-125851428D01*
X147523761Y-126175238D01*
X147599952Y-126337142D01*
X147676142Y-126418095D01*
X147828523Y-126499047D01*
X147980904Y-126499047D01*
X148133285Y-126418095D01*
X148209476Y-126337142D01*
X148285666Y-126175238D01*
X148361857Y-125851428D01*
X148361857Y-125446666D01*
X148285666Y-125122857D01*
X148209476Y-124960952D01*
X148133285Y-124880000D01*
X147980904Y-124799047D01*
X145923761Y-126499047D02*
X146838047Y-126499047D01*
X146380904Y-126499047D02*
X146380904Y-124799047D01*
X146533285Y-125041904D01*
X146685666Y-125203809D01*
X146838047Y-125284761D01*
X145314238Y-126013333D02*
X144552333Y-126013333D01*
X145466619Y-126499047D02*
X144933285Y-124799047D01*
X144399952Y-126499047D01*
D12*
X147329428Y-115223857D02*
X147900857Y-115223857D01*
X147900857Y-114023857D01*
X146929428Y-114595285D02*
X146529428Y-114595285D01*
X146358000Y-115223857D02*
X146929428Y-115223857D01*
X146929428Y-114023857D01*
X146358000Y-114023857D01*
X145843714Y-115223857D02*
X145843714Y-114023857D01*
X145558000Y-114023857D01*
X145386571Y-114081000D01*
X145272285Y-114195285D01*
X145215142Y-114309571D01*
X145158000Y-114538142D01*
X145158000Y-114709571D01*
X145215142Y-114938142D01*
X145272285Y-115052428D01*
X145386571Y-115166714D01*
X145558000Y-115223857D01*
X145843714Y-115223857D01*
D13*
X147828000Y-115824000D02*
X145542000Y-115824000D01*
X147828000Y-120396000D02*
X147828000Y-115824000D01*
X145542000Y-120396000D02*
X147828000Y-120396000D01*
X145542000Y-115824000D02*
X145542000Y-120396000D01*
X141224000Y-113284000D02*
X141224000Y-108712000D01*
X148336000Y-113284000D02*
X141224000Y-113284000D01*
X148336000Y-108712000D02*
X148336000Y-113284000D01*
X141224000Y-108712000D02*
X148336000Y-108712000D01*
D11*
X168681304Y-125034657D02*
X167157495Y-125034657D01*
X167919400Y-125796561D02*
X167919400Y-124272752D01*
D14*
X169275000Y-114300000D02*
G75*
G03X169275000Y-114300000I-1000000J0D01*
G01*
X168378142Y-117562333D02*
X168425761Y-117514714D01*
X168473380Y-117371857D01*
X168473380Y-117276619D01*
X168425761Y-117133761D01*
X168330523Y-117038523D01*
X168235285Y-116990904D01*
X168044809Y-116943285D01*
X167901952Y-116943285D01*
X167711476Y-116990904D01*
X167616238Y-117038523D01*
X167521000Y-117133761D01*
X167473380Y-117276619D01*
X167473380Y-117371857D01*
X167521000Y-117514714D01*
X167568619Y-117562333D01*
X167473380Y-117895666D02*
X167473380Y-118514714D01*
X167854333Y-118181380D01*
X167854333Y-118324238D01*
X167901952Y-118419476D01*
X167949571Y-118467095D01*
X168044809Y-118514714D01*
X168282904Y-118514714D01*
X168378142Y-118467095D01*
X168425761Y-118419476D01*
X168473380Y-118324238D01*
X168473380Y-118038523D01*
X168425761Y-117943285D01*
X168378142Y-117895666D01*
X165842142Y-121266671D02*
X165842142Y-122409528D01*
X166413571Y-121838100D02*
X165270714Y-121838100D01*
M02*
