G04 #@! TF.FileFunction,Copper,L1,Top,Signal*
%FSLAX46Y46*%
G04 Gerber Fmt 4.6, Leading zero omitted, Abs format (unit mm)*
G04 Created by KiCad (PCBNEW 4.0.1-stable) date 20. 4. 2016 9:06:18*
%MOMM*%
G01*
G04 APERTURE LIST*
%ADD10C,0.500000*%
%ADD11C,0.150000*%
%ADD12R,1.524000X1.524000*%
%ADD13C,1.450000*%
%ADD14C,1.900000*%
%ADD15R,1.500000X1.050000*%
%ADD16C,0.800000*%
%ADD17C,0.700000*%
%ADD18C,0.250000*%
G04 APERTURE END LIST*
D10*
D11*
X28176220Y12214880D02*
X28481020Y12534920D01*
X28191460Y12252980D02*
X27919680Y12527300D01*
X27919680Y12222500D02*
X28488640Y12217420D01*
D12*
X8445500Y14478000D03*
X8445500Y17018000D03*
X10985500Y14478000D03*
X10985500Y17018000D03*
X13525500Y14478000D03*
X13525500Y17018000D03*
X20066000Y17018000D03*
X17526000Y17018000D03*
D13*
X4859000Y7500000D03*
X4859000Y12500000D03*
D14*
X2159000Y13500000D03*
X2159000Y6500000D03*
D15*
X26670000Y8000000D03*
X26670000Y12000000D03*
D16*
X25273000Y6223000D03*
X24955500Y12001500D03*
D10*
X26670000Y8000000D02*
X26670000Y7620000D01*
X26670000Y7620000D02*
X25273000Y6223000D01*
D17*
X24955500Y12001500D02*
X26668500Y12001500D01*
X26668500Y12001500D02*
X26670000Y12000000D01*
X26606500Y12063500D02*
X26670000Y12000000D01*
D18*
G36*
X29475000Y525000D02*
X525000Y525000D01*
X525000Y11838117D01*
X24130357Y11838117D01*
X24255691Y11534785D01*
X24487565Y11302507D01*
X24790677Y11176643D01*
X25118883Y11176357D01*
X25240239Y11226500D01*
X25386221Y11226500D01*
X25166106Y11006769D01*
X24895309Y10354618D01*
X24894693Y9648480D01*
X25164351Y8995857D01*
X25511585Y8648016D01*
X25486674Y8525000D01*
X25486674Y7475000D01*
X25499934Y7404528D01*
X25143519Y7048113D01*
X25109617Y7048143D01*
X24806285Y6922809D01*
X24574007Y6690935D01*
X24448143Y6387823D01*
X24447857Y6059617D01*
X24573191Y5756285D01*
X24805065Y5524007D01*
X25108177Y5398143D01*
X25436383Y5397857D01*
X25739715Y5523191D01*
X25971993Y5755065D01*
X26097857Y6058177D01*
X26097888Y6093294D01*
X27046268Y7041674D01*
X27420000Y7041674D01*
X27577496Y7071309D01*
X27722146Y7164389D01*
X27819186Y7306412D01*
X27853326Y7475000D01*
X27853326Y8525000D01*
X27829846Y8649783D01*
X28173894Y8993231D01*
X28444691Y9645382D01*
X28445307Y10351520D01*
X28175649Y11004143D01*
X27828415Y11351984D01*
X27853326Y11475000D01*
X27853326Y11735406D01*
X27915216Y11722520D01*
X28157748Y11720355D01*
X28188411Y11715029D01*
X28210063Y11719887D01*
X28484176Y11717440D01*
X28675850Y11753790D01*
X28839023Y11860724D01*
X28948854Y12021961D01*
X28988620Y12212956D01*
X28954282Y12394019D01*
X28980871Y12547111D01*
X28938157Y12737468D01*
X28825848Y12896989D01*
X28661041Y13001388D01*
X28468829Y13034771D01*
X28278472Y12992057D01*
X28194873Y12933200D01*
X28113168Y12988345D01*
X27922006Y13027294D01*
X27730489Y12990125D01*
X27609354Y12909997D01*
X27588588Y12924186D01*
X27420000Y12958326D01*
X25920000Y12958326D01*
X25762504Y12928691D01*
X25617854Y12835611D01*
X25577465Y12776500D01*
X25240391Y12776500D01*
X25120323Y12826357D01*
X24792117Y12826643D01*
X24488785Y12701309D01*
X24256507Y12469435D01*
X24130643Y12166323D01*
X24130357Y11838117D01*
X525000Y11838117D01*
X525000Y15240000D01*
X9790174Y15240000D01*
X9790174Y13716000D01*
X9819809Y13558504D01*
X9912889Y13413854D01*
X10054912Y13316814D01*
X10223500Y13282674D01*
X11747500Y13282674D01*
X11904996Y13312309D01*
X12049646Y13405389D01*
X12146686Y13547412D01*
X12180826Y13716000D01*
X12180826Y15240000D01*
X12151191Y15397496D01*
X12058111Y15542146D01*
X11916088Y15639186D01*
X11747500Y15673326D01*
X10223500Y15673326D01*
X10066004Y15643691D01*
X9921354Y15550611D01*
X9824314Y15408588D01*
X9790174Y15240000D01*
X525000Y15240000D01*
X525000Y17780000D01*
X9790174Y17780000D01*
X9790174Y16256000D01*
X9819809Y16098504D01*
X9912889Y15953854D01*
X10054912Y15856814D01*
X10223500Y15822674D01*
X11747500Y15822674D01*
X11904996Y15852309D01*
X12049646Y15945389D01*
X12146686Y16087412D01*
X12180826Y16256000D01*
X12180826Y17780000D01*
X18870674Y17780000D01*
X18870674Y16256000D01*
X18900309Y16098504D01*
X18993389Y15953854D01*
X19135412Y15856814D01*
X19304000Y15822674D01*
X20828000Y15822674D01*
X20985496Y15852309D01*
X21130146Y15945389D01*
X21227186Y16087412D01*
X21261326Y16256000D01*
X21261326Y17780000D01*
X21231691Y17937496D01*
X21138611Y18082146D01*
X20996588Y18179186D01*
X20828000Y18213326D01*
X19304000Y18213326D01*
X19146504Y18183691D01*
X19001854Y18090611D01*
X18904814Y17948588D01*
X18870674Y17780000D01*
X12180826Y17780000D01*
X12151191Y17937496D01*
X12058111Y18082146D01*
X11916088Y18179186D01*
X11747500Y18213326D01*
X10223500Y18213326D01*
X10066004Y18183691D01*
X9921354Y18090611D01*
X9824314Y17948588D01*
X9790174Y17780000D01*
X525000Y17780000D01*
X525000Y19475000D01*
X29475000Y19475000D01*
X29475000Y525000D01*
X29475000Y525000D01*
G37*
X29475000Y525000D02*
X525000Y525000D01*
X525000Y11838117D01*
X24130357Y11838117D01*
X24255691Y11534785D01*
X24487565Y11302507D01*
X24790677Y11176643D01*
X25118883Y11176357D01*
X25240239Y11226500D01*
X25386221Y11226500D01*
X25166106Y11006769D01*
X24895309Y10354618D01*
X24894693Y9648480D01*
X25164351Y8995857D01*
X25511585Y8648016D01*
X25486674Y8525000D01*
X25486674Y7475000D01*
X25499934Y7404528D01*
X25143519Y7048113D01*
X25109617Y7048143D01*
X24806285Y6922809D01*
X24574007Y6690935D01*
X24448143Y6387823D01*
X24447857Y6059617D01*
X24573191Y5756285D01*
X24805065Y5524007D01*
X25108177Y5398143D01*
X25436383Y5397857D01*
X25739715Y5523191D01*
X25971993Y5755065D01*
X26097857Y6058177D01*
X26097888Y6093294D01*
X27046268Y7041674D01*
X27420000Y7041674D01*
X27577496Y7071309D01*
X27722146Y7164389D01*
X27819186Y7306412D01*
X27853326Y7475000D01*
X27853326Y8525000D01*
X27829846Y8649783D01*
X28173894Y8993231D01*
X28444691Y9645382D01*
X28445307Y10351520D01*
X28175649Y11004143D01*
X27828415Y11351984D01*
X27853326Y11475000D01*
X27853326Y11735406D01*
X27915216Y11722520D01*
X28157748Y11720355D01*
X28188411Y11715029D01*
X28210063Y11719887D01*
X28484176Y11717440D01*
X28675850Y11753790D01*
X28839023Y11860724D01*
X28948854Y12021961D01*
X28988620Y12212956D01*
X28954282Y12394019D01*
X28980871Y12547111D01*
X28938157Y12737468D01*
X28825848Y12896989D01*
X28661041Y13001388D01*
X28468829Y13034771D01*
X28278472Y12992057D01*
X28194873Y12933200D01*
X28113168Y12988345D01*
X27922006Y13027294D01*
X27730489Y12990125D01*
X27609354Y12909997D01*
X27588588Y12924186D01*
X27420000Y12958326D01*
X25920000Y12958326D01*
X25762504Y12928691D01*
X25617854Y12835611D01*
X25577465Y12776500D01*
X25240391Y12776500D01*
X25120323Y12826357D01*
X24792117Y12826643D01*
X24488785Y12701309D01*
X24256507Y12469435D01*
X24130643Y12166323D01*
X24130357Y11838117D01*
X525000Y11838117D01*
X525000Y15240000D01*
X9790174Y15240000D01*
X9790174Y13716000D01*
X9819809Y13558504D01*
X9912889Y13413854D01*
X10054912Y13316814D01*
X10223500Y13282674D01*
X11747500Y13282674D01*
X11904996Y13312309D01*
X12049646Y13405389D01*
X12146686Y13547412D01*
X12180826Y13716000D01*
X12180826Y15240000D01*
X12151191Y15397496D01*
X12058111Y15542146D01*
X11916088Y15639186D01*
X11747500Y15673326D01*
X10223500Y15673326D01*
X10066004Y15643691D01*
X9921354Y15550611D01*
X9824314Y15408588D01*
X9790174Y15240000D01*
X525000Y15240000D01*
X525000Y17780000D01*
X9790174Y17780000D01*
X9790174Y16256000D01*
X9819809Y16098504D01*
X9912889Y15953854D01*
X10054912Y15856814D01*
X10223500Y15822674D01*
X11747500Y15822674D01*
X11904996Y15852309D01*
X12049646Y15945389D01*
X12146686Y16087412D01*
X12180826Y16256000D01*
X12180826Y17780000D01*
X18870674Y17780000D01*
X18870674Y16256000D01*
X18900309Y16098504D01*
X18993389Y15953854D01*
X19135412Y15856814D01*
X19304000Y15822674D01*
X20828000Y15822674D01*
X20985496Y15852309D01*
X21130146Y15945389D01*
X21227186Y16087412D01*
X21261326Y16256000D01*
X21261326Y17780000D01*
X21231691Y17937496D01*
X21138611Y18082146D01*
X20996588Y18179186D01*
X20828000Y18213326D01*
X19304000Y18213326D01*
X19146504Y18183691D01*
X19001854Y18090611D01*
X18904814Y17948588D01*
X18870674Y17780000D01*
X12180826Y17780000D01*
X12151191Y17937496D01*
X12058111Y18082146D01*
X11916088Y18179186D01*
X11747500Y18213326D01*
X10223500Y18213326D01*
X10066004Y18183691D01*
X9921354Y18090611D01*
X9824314Y17948588D01*
X9790174Y17780000D01*
X525000Y17780000D01*
X525000Y19475000D01*
X29475000Y19475000D01*
X29475000Y525000D01*
M02*
