G04 #@! TF.FileFunction,Copper,L2,Bot,Signal*
%FSLAX46Y46*%
G04 Gerber Fmt 4.6, Leading zero omitted, Abs format (unit mm)*
G04 Created by KiCad (PCBNEW 4.0.1-stable) date 20. 4. 2016 9:06:18*
%MOMM*%
G01*
G04 APERTURE LIST*
%ADD10C,0.500000*%
%ADD11C,0.150000*%
%ADD12R,0.889000X1.397000*%
%ADD13R,1.397000X0.889000*%
%ADD14R,1.500000X1.050000*%
%ADD15R,1.524000X1.524000*%
%ADD16R,5.500000X2.300000*%
%ADD17C,1.450000*%
%ADD18C,1.900000*%
%ADD19R,1.450000X0.450000*%
%ADD20C,0.800000*%
%ADD21C,0.700000*%
%ADD22C,0.300000*%
%ADD23C,0.400000*%
%ADD24C,0.250000*%
G04 APERTURE END LIST*
D10*
D11*
X25163780Y12214880D02*
X24858980Y12534920D01*
X25148540Y12252980D02*
X25420320Y12527300D01*
X25420320Y12222500D02*
X24851360Y12217420D01*
D12*
X16319500Y10287000D03*
X18224500Y10287000D03*
D13*
X23304500Y5397500D03*
X23304500Y3492500D03*
D14*
X26670000Y8000000D03*
X26670000Y12000000D03*
D15*
X8445500Y14478000D03*
X8445500Y17018000D03*
X10985500Y14478000D03*
X10985500Y17018000D03*
X13525500Y14478000D03*
X13525500Y17018000D03*
X20066000Y17018000D03*
X17526000Y17018000D03*
D16*
X10668000Y8719500D03*
X10668000Y4869500D03*
D17*
X4859000Y7500000D03*
X4859000Y12500000D03*
D10*
G36*
X5534000Y9800000D02*
X4184000Y9800000D01*
X4184000Y10200000D01*
X5534000Y10200000D01*
X5534000Y9800000D01*
X5534000Y9800000D01*
G37*
G36*
X5534000Y9150000D02*
X4184000Y9150000D01*
X4184000Y9550000D01*
X5534000Y9550000D01*
X5534000Y9150000D01*
X5534000Y9150000D01*
G37*
G36*
X5534000Y8500000D02*
X4184000Y8500000D01*
X4184000Y8900000D01*
X5534000Y8900000D01*
X5534000Y8500000D01*
X5534000Y8500000D01*
G37*
G36*
X5534000Y10450000D02*
X4184000Y10450000D01*
X4184000Y10850000D01*
X5534000Y10850000D01*
X5534000Y10450000D01*
X5534000Y10450000D01*
G37*
G36*
X5534000Y11100000D02*
X4184000Y11100000D01*
X4184000Y11500000D01*
X5534000Y11500000D01*
X5534000Y11100000D01*
X5534000Y11100000D01*
G37*
G36*
X3109000Y8250000D02*
X1209000Y8250000D01*
X1209000Y9750000D01*
X3109000Y9750000D01*
X3109000Y8250000D01*
X3109000Y8250000D01*
G37*
G36*
X3109000Y10250000D02*
X1209000Y10250000D01*
X1209000Y11750000D01*
X3109000Y11750000D01*
X3109000Y10250000D01*
X3109000Y10250000D01*
G37*
D18*
X2159000Y13500000D03*
X2159000Y6500000D03*
D12*
X17716500Y13462000D03*
X19621500Y13462000D03*
D13*
X22669500Y11557000D03*
X22669500Y13462000D03*
D19*
X20107000Y7198000D03*
X20107000Y6548000D03*
X20107000Y5898000D03*
X20107000Y5248000D03*
X15707000Y5248000D03*
X15707000Y5898000D03*
X15707000Y6548000D03*
X15707000Y7198000D03*
D20*
X25273000Y6223000D03*
X24955500Y12001500D03*
D21*
X16319500Y10287000D02*
X16319500Y8888500D01*
X16319500Y8888500D02*
X15707000Y8276000D01*
X15707000Y8276000D02*
X15707000Y7323001D01*
X16319500Y10287000D02*
X16319500Y12065000D01*
X16319500Y12065000D02*
X17716500Y13462000D01*
D22*
X15707000Y5898000D02*
X15707000Y6548000D01*
D21*
X18224500Y10287000D02*
X18224500Y7775498D01*
X16472003Y6023001D02*
X15707000Y6023001D01*
X18224500Y7775498D02*
X16472003Y6023001D01*
X26351500Y8000000D02*
X25273000Y6921500D01*
X25273000Y6921500D02*
X25273000Y6223000D01*
X26670000Y8000000D02*
X26351500Y8000000D01*
X25273000Y6223000D02*
X24130000Y6223000D01*
X24130000Y6223000D02*
X23304500Y5397500D01*
X21232000Y5248000D02*
X21381500Y5397500D01*
X21381500Y5397500D02*
X23304500Y5397500D01*
D23*
X20107000Y5248000D02*
X21232000Y5248000D01*
X21232000Y5248000D02*
X21254500Y5270500D01*
D21*
X26670000Y12000000D02*
X24957000Y12000000D01*
X24957000Y12000000D02*
X24955500Y12001500D01*
X22669500Y11557000D02*
X24511000Y11557000D01*
X24511000Y11557000D02*
X24955500Y12001500D01*
X21844000Y7160000D02*
X22669500Y7985500D01*
X22669500Y7985500D02*
X22669500Y11557000D01*
D23*
X20107000Y6548000D02*
X21232000Y6548000D01*
X21232000Y6548000D02*
X21844000Y7160000D01*
D21*
X20107000Y8404500D02*
X19621500Y8890000D01*
X19621500Y8890000D02*
X19621500Y13462000D01*
D23*
X20107000Y7198000D02*
X20107000Y8404500D01*
D21*
X19621500Y13462000D02*
X19621500Y16573500D01*
X19621500Y16573500D02*
X20066000Y17018000D01*
D10*
X10668000Y4869500D02*
X13918000Y4869500D01*
X14271499Y5222999D02*
X14621999Y5222999D01*
X13918000Y4869500D02*
X14271499Y5222999D01*
X14621999Y5222999D02*
X15707000Y5222999D01*
D24*
G36*
X11876500Y11811000D02*
X11886348Y11762368D01*
X11913112Y11722612D01*
X12545998Y11089726D01*
X12587349Y11062301D01*
X12634247Y11053114D01*
X14541361Y11051000D01*
X16829500Y11051000D01*
X16829500Y8052776D01*
X16548612Y7771888D01*
X16521187Y7730537D01*
X16512000Y7683500D01*
X16512000Y7190125D01*
X16432000Y7206326D01*
X14982000Y7206326D01*
X14824504Y7176691D01*
X14720864Y7110000D01*
X13958276Y7110000D01*
X13550388Y7517888D01*
X13509037Y7545313D01*
X13462000Y7554500D01*
X7798776Y7554500D01*
X6755888Y8597388D01*
X6714537Y8624813D01*
X6667500Y8634000D01*
X5126804Y8634000D01*
X5088753Y8649800D01*
X4631254Y8650199D01*
X4592049Y8634000D01*
X4316000Y8634000D01*
X4316000Y8716674D01*
X5534000Y8716674D01*
X5691496Y8746309D01*
X5720543Y8765000D01*
X6350000Y8765000D01*
X6398632Y8774848D01*
X6438388Y8801612D01*
X10057888Y12421112D01*
X10085313Y12462463D01*
X10094500Y12509500D01*
X10094500Y17909000D01*
X11876500Y17909000D01*
X11876500Y11811000D01*
X11876500Y11811000D01*
G37*
X11876500Y11811000D02*
X11886348Y11762368D01*
X11913112Y11722612D01*
X12545998Y11089726D01*
X12587349Y11062301D01*
X12634247Y11053114D01*
X14541361Y11051000D01*
X16829500Y11051000D01*
X16829500Y8052776D01*
X16548612Y7771888D01*
X16521187Y7730537D01*
X16512000Y7683500D01*
X16512000Y7190125D01*
X16432000Y7206326D01*
X14982000Y7206326D01*
X14824504Y7176691D01*
X14720864Y7110000D01*
X13958276Y7110000D01*
X13550388Y7517888D01*
X13509037Y7545313D01*
X13462000Y7554500D01*
X7798776Y7554500D01*
X6755888Y8597388D01*
X6714537Y8624813D01*
X6667500Y8634000D01*
X5126804Y8634000D01*
X5088753Y8649800D01*
X4631254Y8650199D01*
X4592049Y8634000D01*
X4316000Y8634000D01*
X4316000Y8716674D01*
X5534000Y8716674D01*
X5691496Y8746309D01*
X5720543Y8765000D01*
X6350000Y8765000D01*
X6398632Y8774848D01*
X6438388Y8801612D01*
X10057888Y12421112D01*
X10085313Y12462463D01*
X10094500Y12509500D01*
X10094500Y17909000D01*
X11876500Y17909000D01*
X11876500Y11811000D01*
G36*
X14603739Y5475985D02*
X14671389Y5370854D01*
X14813412Y5273814D01*
X14982000Y5239674D01*
X16321500Y5239674D01*
X16321500Y5078000D01*
X15684500Y5078000D01*
X15635868Y5068152D01*
X15596112Y5041388D01*
X14299224Y3744500D01*
X7999000Y3744500D01*
X7999000Y5907500D01*
X14172224Y5907500D01*
X14603739Y5475985D01*
X14603739Y5475985D01*
G37*
X14603739Y5475985D02*
X14671389Y5370854D01*
X14813412Y5273814D01*
X14982000Y5239674D01*
X16321500Y5239674D01*
X16321500Y5078000D01*
X15684500Y5078000D01*
X15635868Y5068152D01*
X15596112Y5041388D01*
X14299224Y3744500D01*
X7999000Y3744500D01*
X7999000Y5907500D01*
X14172224Y5907500D01*
X14603739Y5475985D01*
G36*
X29475000Y525000D02*
X525000Y525000D01*
X525000Y6032500D01*
X7449000Y6032500D01*
X7449000Y3619500D01*
X7478065Y3465031D01*
X7569357Y3323160D01*
X7708651Y3227984D01*
X7874000Y3194500D01*
X14351000Y3194500D01*
X14510924Y3225737D01*
X14651520Y3318980D01*
X15860540Y4528000D01*
X16446500Y4528000D01*
X16600969Y4557065D01*
X16742840Y4648357D01*
X16838016Y4787651D01*
X16871500Y4953000D01*
X16871500Y5461000D01*
X16842435Y5615469D01*
X16836900Y5624071D01*
X16835691Y5630496D01*
X16742611Y5775146D01*
X16600588Y5872186D01*
X16432000Y5906326D01*
X14982000Y5906326D01*
X14956089Y5901451D01*
X14524520Y6333020D01*
X14389349Y6424016D01*
X14224000Y6457500D01*
X7874000Y6457500D01*
X7719531Y6428435D01*
X7577660Y6337143D01*
X7482484Y6197849D01*
X7449000Y6032500D01*
X525000Y6032500D01*
X525000Y10200000D01*
X3750674Y10200000D01*
X3750674Y9800000D01*
X3775058Y9670411D01*
X3750674Y9550000D01*
X3750674Y9150000D01*
X3775058Y9020411D01*
X3750674Y8900000D01*
X3750674Y8500000D01*
X3780309Y8342504D01*
X3873389Y8197854D01*
X4015412Y8100814D01*
X4184000Y8066674D01*
X5534000Y8066674D01*
X5626079Y8084000D01*
X6491460Y8084000D01*
X7446480Y7128980D01*
X7581651Y7037984D01*
X7747000Y7004500D01*
X13285960Y7004500D01*
X13605980Y6684480D01*
X13741151Y6593484D01*
X13906500Y6560000D01*
X14881627Y6560000D01*
X14982000Y6539674D01*
X16432000Y6539674D01*
X16540023Y6560000D01*
X16637000Y6560000D01*
X16791469Y6589065D01*
X16933340Y6680357D01*
X17028516Y6819651D01*
X17062000Y6985000D01*
X17062000Y7507460D01*
X17255020Y7700480D01*
X17346016Y7835651D01*
X17379500Y8001000D01*
X17379500Y11176000D01*
X17350435Y11330469D01*
X17259143Y11472340D01*
X17119849Y11567516D01*
X17094500Y11572649D01*
X17094500Y11743984D01*
X17680690Y12330174D01*
X18161000Y12330174D01*
X18318496Y12359809D01*
X18463146Y12452889D01*
X18560186Y12594912D01*
X18594326Y12763500D01*
X18594326Y14160500D01*
X18743674Y14160500D01*
X18743674Y12763500D01*
X18773309Y12606004D01*
X18846500Y12492262D01*
X18846500Y8890000D01*
X18905493Y8593420D01*
X19073492Y8341992D01*
X19482000Y7933484D01*
X19482000Y7856326D01*
X19382000Y7856326D01*
X19224504Y7826691D01*
X19079854Y7733611D01*
X18982814Y7591588D01*
X18948674Y7423000D01*
X18948674Y6973000D01*
X18968181Y6869329D01*
X18948674Y6773000D01*
X18948674Y6323000D01*
X18968181Y6219329D01*
X18948674Y6123000D01*
X18948674Y5673000D01*
X18968181Y5569329D01*
X18948674Y5473000D01*
X18948674Y5023000D01*
X18978309Y4865504D01*
X19071389Y4720854D01*
X19213412Y4623814D01*
X19382000Y4589674D01*
X20832000Y4589674D01*
X20845338Y4592184D01*
X20935420Y4531993D01*
X21232000Y4473000D01*
X21528580Y4531993D01*
X21664033Y4622500D01*
X22336887Y4622500D01*
X22437412Y4553814D01*
X22606000Y4519674D01*
X24003000Y4519674D01*
X24160496Y4549309D01*
X24305146Y4642389D01*
X24402186Y4784412D01*
X24436326Y4953000D01*
X24436326Y5433310D01*
X24451016Y5448000D01*
X24988109Y5448000D01*
X25108177Y5398143D01*
X25436383Y5397857D01*
X25739715Y5523191D01*
X25971993Y5755065D01*
X26097857Y6058177D01*
X26098143Y6386383D01*
X26048000Y6507739D01*
X26048000Y6600484D01*
X26489190Y7041674D01*
X27420000Y7041674D01*
X27577496Y7071309D01*
X27722146Y7164389D01*
X27819186Y7306412D01*
X27853326Y7475000D01*
X27853326Y8525000D01*
X27829846Y8649783D01*
X28173894Y8993231D01*
X28444691Y9645382D01*
X28445307Y10351520D01*
X28175649Y11004143D01*
X27828415Y11351984D01*
X27853326Y11475000D01*
X27853326Y12525000D01*
X27823691Y12682496D01*
X27730611Y12827146D01*
X27588588Y12924186D01*
X27420000Y12958326D01*
X25920000Y12958326D01*
X25762504Y12928691D01*
X25732030Y12909082D01*
X25609511Y12990125D01*
X25417994Y13027294D01*
X25226832Y12988345D01*
X25145127Y12933200D01*
X25061528Y12992057D01*
X24871171Y13034771D01*
X24678959Y13001388D01*
X24514152Y12896989D01*
X24401843Y12737468D01*
X24366291Y12579028D01*
X24256507Y12469435D01*
X24206152Y12348168D01*
X24189984Y12332000D01*
X23637113Y12332000D01*
X23536588Y12400686D01*
X23368000Y12434826D01*
X21971000Y12434826D01*
X21813504Y12405191D01*
X21668854Y12312111D01*
X21571814Y12170088D01*
X21537674Y12001500D01*
X21537674Y11112500D01*
X21567309Y10955004D01*
X21660389Y10810354D01*
X21802412Y10713314D01*
X21894500Y10694666D01*
X21894500Y8306516D01*
X21295992Y7708008D01*
X21223475Y7599479D01*
X21142611Y7725146D01*
X21000588Y7822186D01*
X20832000Y7856326D01*
X20732000Y7856326D01*
X20732000Y7971719D01*
X20823007Y8107920D01*
X20882001Y8404500D01*
X20823007Y8701079D01*
X20655008Y8952508D01*
X20396500Y9211016D01*
X20396500Y12494387D01*
X20465186Y12594912D01*
X20499326Y12763500D01*
X20499326Y14160500D01*
X20469691Y14317996D01*
X20396500Y14431738D01*
X20396500Y15822674D01*
X20828000Y15822674D01*
X20985496Y15852309D01*
X21130146Y15945389D01*
X21227186Y16087412D01*
X21261326Y16256000D01*
X21261326Y17780000D01*
X21231691Y17937496D01*
X21138611Y18082146D01*
X20996588Y18179186D01*
X20828000Y18213326D01*
X19304000Y18213326D01*
X19146504Y18183691D01*
X19001854Y18090611D01*
X18904814Y17948588D01*
X18870674Y17780000D01*
X18870674Y16695032D01*
X18846500Y16573500D01*
X18846500Y14429613D01*
X18777814Y14329088D01*
X18743674Y14160500D01*
X18594326Y14160500D01*
X18564691Y14317996D01*
X18471611Y14462646D01*
X18329588Y14559686D01*
X18161000Y14593826D01*
X17272000Y14593826D01*
X17114504Y14564191D01*
X16969854Y14471111D01*
X16872814Y14329088D01*
X16838674Y14160500D01*
X16838674Y13680190D01*
X15771492Y12613008D01*
X15603493Y12361580D01*
X15544500Y12065000D01*
X15544500Y11601000D01*
X14541971Y11601000D01*
X12810621Y11602919D01*
X12426500Y11987040D01*
X12426500Y18034000D01*
X12397435Y18188469D01*
X12306143Y18330340D01*
X12166849Y18425516D01*
X12001500Y18459000D01*
X9969500Y18459000D01*
X9815031Y18429935D01*
X9673160Y18338643D01*
X9577984Y18199349D01*
X9544500Y18034000D01*
X9544500Y12685540D01*
X6173960Y9315000D01*
X5967326Y9315000D01*
X5967326Y9550000D01*
X5942942Y9679589D01*
X5967326Y9800000D01*
X5967326Y10200000D01*
X5937691Y10357496D01*
X5844611Y10502146D01*
X5702588Y10599186D01*
X5534000Y10633326D01*
X4184000Y10633326D01*
X4026504Y10603691D01*
X3881854Y10510611D01*
X3784814Y10368588D01*
X3750674Y10200000D01*
X525000Y10200000D01*
X525000Y19475000D01*
X29475000Y19475000D01*
X29475000Y525000D01*
X29475000Y525000D01*
G37*
X29475000Y525000D02*
X525000Y525000D01*
X525000Y6032500D01*
X7449000Y6032500D01*
X7449000Y3619500D01*
X7478065Y3465031D01*
X7569357Y3323160D01*
X7708651Y3227984D01*
X7874000Y3194500D01*
X14351000Y3194500D01*
X14510924Y3225737D01*
X14651520Y3318980D01*
X15860540Y4528000D01*
X16446500Y4528000D01*
X16600969Y4557065D01*
X16742840Y4648357D01*
X16838016Y4787651D01*
X16871500Y4953000D01*
X16871500Y5461000D01*
X16842435Y5615469D01*
X16836900Y5624071D01*
X16835691Y5630496D01*
X16742611Y5775146D01*
X16600588Y5872186D01*
X16432000Y5906326D01*
X14982000Y5906326D01*
X14956089Y5901451D01*
X14524520Y6333020D01*
X14389349Y6424016D01*
X14224000Y6457500D01*
X7874000Y6457500D01*
X7719531Y6428435D01*
X7577660Y6337143D01*
X7482484Y6197849D01*
X7449000Y6032500D01*
X525000Y6032500D01*
X525000Y10200000D01*
X3750674Y10200000D01*
X3750674Y9800000D01*
X3775058Y9670411D01*
X3750674Y9550000D01*
X3750674Y9150000D01*
X3775058Y9020411D01*
X3750674Y8900000D01*
X3750674Y8500000D01*
X3780309Y8342504D01*
X3873389Y8197854D01*
X4015412Y8100814D01*
X4184000Y8066674D01*
X5534000Y8066674D01*
X5626079Y8084000D01*
X6491460Y8084000D01*
X7446480Y7128980D01*
X7581651Y7037984D01*
X7747000Y7004500D01*
X13285960Y7004500D01*
X13605980Y6684480D01*
X13741151Y6593484D01*
X13906500Y6560000D01*
X14881627Y6560000D01*
X14982000Y6539674D01*
X16432000Y6539674D01*
X16540023Y6560000D01*
X16637000Y6560000D01*
X16791469Y6589065D01*
X16933340Y6680357D01*
X17028516Y6819651D01*
X17062000Y6985000D01*
X17062000Y7507460D01*
X17255020Y7700480D01*
X17346016Y7835651D01*
X17379500Y8001000D01*
X17379500Y11176000D01*
X17350435Y11330469D01*
X17259143Y11472340D01*
X17119849Y11567516D01*
X17094500Y11572649D01*
X17094500Y11743984D01*
X17680690Y12330174D01*
X18161000Y12330174D01*
X18318496Y12359809D01*
X18463146Y12452889D01*
X18560186Y12594912D01*
X18594326Y12763500D01*
X18594326Y14160500D01*
X18743674Y14160500D01*
X18743674Y12763500D01*
X18773309Y12606004D01*
X18846500Y12492262D01*
X18846500Y8890000D01*
X18905493Y8593420D01*
X19073492Y8341992D01*
X19482000Y7933484D01*
X19482000Y7856326D01*
X19382000Y7856326D01*
X19224504Y7826691D01*
X19079854Y7733611D01*
X18982814Y7591588D01*
X18948674Y7423000D01*
X18948674Y6973000D01*
X18968181Y6869329D01*
X18948674Y6773000D01*
X18948674Y6323000D01*
X18968181Y6219329D01*
X18948674Y6123000D01*
X18948674Y5673000D01*
X18968181Y5569329D01*
X18948674Y5473000D01*
X18948674Y5023000D01*
X18978309Y4865504D01*
X19071389Y4720854D01*
X19213412Y4623814D01*
X19382000Y4589674D01*
X20832000Y4589674D01*
X20845338Y4592184D01*
X20935420Y4531993D01*
X21232000Y4473000D01*
X21528580Y4531993D01*
X21664033Y4622500D01*
X22336887Y4622500D01*
X22437412Y4553814D01*
X22606000Y4519674D01*
X24003000Y4519674D01*
X24160496Y4549309D01*
X24305146Y4642389D01*
X24402186Y4784412D01*
X24436326Y4953000D01*
X24436326Y5433310D01*
X24451016Y5448000D01*
X24988109Y5448000D01*
X25108177Y5398143D01*
X25436383Y5397857D01*
X25739715Y5523191D01*
X25971993Y5755065D01*
X26097857Y6058177D01*
X26098143Y6386383D01*
X26048000Y6507739D01*
X26048000Y6600484D01*
X26489190Y7041674D01*
X27420000Y7041674D01*
X27577496Y7071309D01*
X27722146Y7164389D01*
X27819186Y7306412D01*
X27853326Y7475000D01*
X27853326Y8525000D01*
X27829846Y8649783D01*
X28173894Y8993231D01*
X28444691Y9645382D01*
X28445307Y10351520D01*
X28175649Y11004143D01*
X27828415Y11351984D01*
X27853326Y11475000D01*
X27853326Y12525000D01*
X27823691Y12682496D01*
X27730611Y12827146D01*
X27588588Y12924186D01*
X27420000Y12958326D01*
X25920000Y12958326D01*
X25762504Y12928691D01*
X25732030Y12909082D01*
X25609511Y12990125D01*
X25417994Y13027294D01*
X25226832Y12988345D01*
X25145127Y12933200D01*
X25061528Y12992057D01*
X24871171Y13034771D01*
X24678959Y13001388D01*
X24514152Y12896989D01*
X24401843Y12737468D01*
X24366291Y12579028D01*
X24256507Y12469435D01*
X24206152Y12348168D01*
X24189984Y12332000D01*
X23637113Y12332000D01*
X23536588Y12400686D01*
X23368000Y12434826D01*
X21971000Y12434826D01*
X21813504Y12405191D01*
X21668854Y12312111D01*
X21571814Y12170088D01*
X21537674Y12001500D01*
X21537674Y11112500D01*
X21567309Y10955004D01*
X21660389Y10810354D01*
X21802412Y10713314D01*
X21894500Y10694666D01*
X21894500Y8306516D01*
X21295992Y7708008D01*
X21223475Y7599479D01*
X21142611Y7725146D01*
X21000588Y7822186D01*
X20832000Y7856326D01*
X20732000Y7856326D01*
X20732000Y7971719D01*
X20823007Y8107920D01*
X20882001Y8404500D01*
X20823007Y8701079D01*
X20655008Y8952508D01*
X20396500Y9211016D01*
X20396500Y12494387D01*
X20465186Y12594912D01*
X20499326Y12763500D01*
X20499326Y14160500D01*
X20469691Y14317996D01*
X20396500Y14431738D01*
X20396500Y15822674D01*
X20828000Y15822674D01*
X20985496Y15852309D01*
X21130146Y15945389D01*
X21227186Y16087412D01*
X21261326Y16256000D01*
X21261326Y17780000D01*
X21231691Y17937496D01*
X21138611Y18082146D01*
X20996588Y18179186D01*
X20828000Y18213326D01*
X19304000Y18213326D01*
X19146504Y18183691D01*
X19001854Y18090611D01*
X18904814Y17948588D01*
X18870674Y17780000D01*
X18870674Y16695032D01*
X18846500Y16573500D01*
X18846500Y14429613D01*
X18777814Y14329088D01*
X18743674Y14160500D01*
X18594326Y14160500D01*
X18564691Y14317996D01*
X18471611Y14462646D01*
X18329588Y14559686D01*
X18161000Y14593826D01*
X17272000Y14593826D01*
X17114504Y14564191D01*
X16969854Y14471111D01*
X16872814Y14329088D01*
X16838674Y14160500D01*
X16838674Y13680190D01*
X15771492Y12613008D01*
X15603493Y12361580D01*
X15544500Y12065000D01*
X15544500Y11601000D01*
X14541971Y11601000D01*
X12810621Y11602919D01*
X12426500Y11987040D01*
X12426500Y18034000D01*
X12397435Y18188469D01*
X12306143Y18330340D01*
X12166849Y18425516D01*
X12001500Y18459000D01*
X9969500Y18459000D01*
X9815031Y18429935D01*
X9673160Y18338643D01*
X9577984Y18199349D01*
X9544500Y18034000D01*
X9544500Y12685540D01*
X6173960Y9315000D01*
X5967326Y9315000D01*
X5967326Y9550000D01*
X5942942Y9679589D01*
X5967326Y9800000D01*
X5967326Y10200000D01*
X5937691Y10357496D01*
X5844611Y10502146D01*
X5702588Y10599186D01*
X5534000Y10633326D01*
X4184000Y10633326D01*
X4026504Y10603691D01*
X3881854Y10510611D01*
X3784814Y10368588D01*
X3750674Y10200000D01*
X525000Y10200000D01*
X525000Y19475000D01*
X29475000Y19475000D01*
X29475000Y525000D01*
M02*
