G04 #@! TF.FileFunction,Legend,Top*
%FSLAX46Y46*%
G04 Gerber Fmt 4.6, Leading zero omitted, Abs format (unit mm)*
G04 Created by KiCad (PCBNEW 4.1.0-alpha+201607041450+6962~46~ubuntu16.04.1-product) date Tue Jul  5 21:19:18 2016*
%MOMM*%
%LPD*%
G01*
G04 APERTURE LIST*
%ADD10C,0.500000*%
%ADD11C,0.300000*%
%ADD12C,0.150000*%
%ADD13C,0.050000*%
%ADD14C,0.304800*%
%ADD15C,0.099060*%
G04 APERTURE END LIST*
D10*
D11*
X22158023Y17110857D02*
X22591357Y17110857D01*
X22777071Y16429904D02*
X22158023Y16429904D01*
X22158023Y17729904D01*
X22777071Y17729904D01*
X23334214Y16429904D02*
X23334214Y17729904D01*
X24077071Y16429904D01*
X24077071Y17729904D01*
X6687904Y11540404D02*
X6687904Y12840404D01*
X7183142Y12840404D01*
X7306952Y12778500D01*
X7368857Y12716595D01*
X7430761Y12592785D01*
X7430761Y12407071D01*
X7368857Y12283261D01*
X7306952Y12221357D01*
X7183142Y12159452D01*
X6687904Y12159452D01*
X8235523Y12840404D02*
X8483142Y12840404D01*
X8606952Y12778500D01*
X8730761Y12654690D01*
X8792666Y12407071D01*
X8792666Y11973738D01*
X8730761Y11726119D01*
X8606952Y11602309D01*
X8483142Y11540404D01*
X8235523Y11540404D01*
X8111714Y11602309D01*
X7987904Y11726119D01*
X7926000Y11973738D01*
X7926000Y12407071D01*
X7987904Y12654690D01*
X8111714Y12778500D01*
X8235523Y12840404D01*
X9226000Y12840404D02*
X9535523Y11540404D01*
X9783142Y12468976D01*
X10030761Y11540404D01*
X10340285Y12840404D01*
X10835523Y12221357D02*
X11268857Y12221357D01*
X11454571Y11540404D02*
X10835523Y11540404D01*
X10835523Y12840404D01*
X11454571Y12840404D01*
X12754571Y11540404D02*
X12321238Y12159452D01*
X12011714Y11540404D02*
X12011714Y12840404D01*
X12506952Y12840404D01*
X12630761Y12778500D01*
X12692666Y12716595D01*
X12754571Y12592785D01*
X12754571Y12407071D01*
X12692666Y12283261D01*
X12630761Y12221357D01*
X12506952Y12159452D01*
X12011714Y12159452D01*
X14302190Y11540404D02*
X14302190Y12840404D01*
X14921238Y11540404D02*
X14921238Y12840404D01*
X15664095Y11540404D01*
X15664095Y12840404D01*
D12*
X7175500Y13208000D02*
X7175500Y18288000D01*
X7175500Y18288000D02*
X14795500Y18288000D01*
X14795500Y18288000D02*
X14795500Y13208000D01*
X14795500Y13208000D02*
X7175500Y13208000D01*
X16256000Y15748000D02*
X16256000Y18288000D01*
X16256000Y18288000D02*
X21336000Y18288000D01*
X21336000Y18288000D02*
X21336000Y15748000D01*
X21336000Y15748000D02*
X16256000Y15748000D01*
D13*
X8671690Y12969857D02*
X8671690Y12684142D01*
X8671690Y12827000D02*
X8171690Y12827000D01*
X8243119Y12779380D01*
X8290738Y12731761D01*
X8314547Y12684142D01*
D14*
X27359428Y8875142D02*
X25835428Y8875142D01*
X25835428Y9238000D01*
X25908000Y9455714D01*
X26053142Y9600857D01*
X26198285Y9673428D01*
X26488571Y9746000D01*
X26706285Y9746000D01*
X26996571Y9673428D01*
X27141714Y9600857D01*
X27286857Y9455714D01*
X27359428Y9238000D01*
X27359428Y8875142D01*
X25980571Y10326571D02*
X25908000Y10399142D01*
X25835428Y10544285D01*
X25835428Y10907142D01*
X25908000Y11052285D01*
X25980571Y11124857D01*
X26125714Y11197428D01*
X26270857Y11197428D01*
X26488571Y11124857D01*
X27359428Y10254000D01*
X27359428Y11197428D01*
D15*
X28302796Y8080001D02*
X28302796Y8318278D01*
X28445762Y8032346D02*
X27945382Y8199140D01*
X28445762Y8365933D01*
X28445762Y11669808D02*
X27945382Y11669808D01*
X28445762Y11955739D02*
X28159830Y11741290D01*
X27945382Y11955739D02*
X28231313Y11669808D01*
M02*
