G04 #@! TF.FileFunction,Copper,L2,Bot,Signal*
%FSLAX46Y46*%
G04 Gerber Fmt 4.6, Leading zero omitted, Abs format (unit mm)*
G04 Created by KiCad (PCBNEW 4.1.0-alpha+201608181240+7066~46~ubuntu16.04.1-product) date Fri Aug 19 11:00:01 2016*
%MOMM*%
%LPD*%
G01*
G04 APERTURE LIST*
%ADD10C,0.100000*%
%ADD11R,1.850000X1.800000*%
%ADD12R,5.000000X3.000000*%
%ADD13C,1.450000*%
%ADD14C,1.900000*%
%ADD15R,1.524000X1.524000*%
%ADD16C,0.800000*%
%ADD17C,0.500000*%
%ADD18C,0.254000*%
G04 APERTURE END LIST*
D10*
D11*
X146685000Y-119380000D03*
X146685000Y-116840000D03*
D12*
X167775000Y-121800000D03*
X167775000Y-114300000D03*
D13*
X142400000Y-115610000D03*
X142400000Y-120610000D03*
D14*
X139700000Y-121610000D03*
X139700000Y-114610000D03*
D15*
X142240000Y-112395000D03*
X142240000Y-109855000D03*
X144780000Y-112395000D03*
X144780000Y-109855000D03*
X147320000Y-112395000D03*
X147320000Y-109855000D03*
D16*
X149809200Y-114452400D03*
X168910000Y-112014000D03*
X165608000Y-112014000D03*
X167132000Y-111252000D03*
X141732000Y-122936000D03*
X140716000Y-126746000D03*
X155956000Y-110744000D03*
X157480000Y-112268000D03*
X156145000Y-117475000D03*
X156145000Y-116625000D03*
X153670000Y-117475000D03*
X154495000Y-117475000D03*
X155320000Y-117475000D03*
X155320000Y-116625000D03*
X154495000Y-116625000D03*
X153670000Y-116625000D03*
D17*
X167132000Y-111252000D02*
X166370000Y-111252000D01*
X166370000Y-111252000D02*
X165608000Y-112014000D01*
X140716000Y-126746000D02*
X140716000Y-123952000D01*
X140716000Y-123952000D02*
X141732000Y-122936000D01*
X157480000Y-112268000D02*
X155956000Y-110744000D01*
D18*
G36*
X141179479Y-108646231D02*
X141031231Y-108794478D01*
X140951000Y-108988173D01*
X140951000Y-109596250D01*
X141082750Y-109728000D01*
X142113000Y-109728000D01*
X142113000Y-109708000D01*
X142367000Y-109708000D01*
X142367000Y-109728000D01*
X142387000Y-109728000D01*
X142387000Y-109982000D01*
X142367000Y-109982000D01*
X142367000Y-111012250D01*
X142479750Y-111125000D01*
X142367000Y-111237750D01*
X142367000Y-112268000D01*
X142387000Y-112268000D01*
X142387000Y-112522000D01*
X142367000Y-112522000D01*
X142367000Y-113552250D01*
X142498750Y-113684000D01*
X143106827Y-113684000D01*
X143300521Y-113603769D01*
X143448769Y-113455522D01*
X143450678Y-113450913D01*
X143560191Y-113614809D01*
X143770235Y-113755157D01*
X144018000Y-113804440D01*
X145542000Y-113804440D01*
X145789765Y-113755157D01*
X145999809Y-113614809D01*
X146109322Y-113450913D01*
X146111231Y-113455522D01*
X146259479Y-113603769D01*
X146453173Y-113684000D01*
X147061250Y-113684000D01*
X147193000Y-113552250D01*
X147193000Y-112522000D01*
X147447000Y-112522000D01*
X147447000Y-113552250D01*
X147578750Y-113684000D01*
X148186827Y-113684000D01*
X148380521Y-113603769D01*
X148528769Y-113455522D01*
X148609000Y-113261827D01*
X148609000Y-112695173D01*
X164748000Y-112695173D01*
X164748000Y-114041250D01*
X164879750Y-114173000D01*
X167648000Y-114173000D01*
X167648000Y-112404750D01*
X167516250Y-112273000D01*
X165170173Y-112273000D01*
X164976479Y-112353231D01*
X164828231Y-112501478D01*
X164748000Y-112695173D01*
X148609000Y-112695173D01*
X148609000Y-112653750D01*
X148477250Y-112522000D01*
X147447000Y-112522000D01*
X147193000Y-112522000D01*
X147173000Y-112522000D01*
X147173000Y-112268000D01*
X147193000Y-112268000D01*
X147193000Y-111237750D01*
X147080250Y-111125000D01*
X147193000Y-111012250D01*
X147193000Y-109982000D01*
X147447000Y-109982000D01*
X147447000Y-111012250D01*
X147559750Y-111125000D01*
X147447000Y-111237750D01*
X147447000Y-112268000D01*
X148477250Y-112268000D01*
X148609000Y-112136250D01*
X148609000Y-111528173D01*
X148528769Y-111334478D01*
X148380521Y-111186231D01*
X148232697Y-111125000D01*
X148380521Y-111063769D01*
X148528769Y-110915522D01*
X148609000Y-110721827D01*
X148609000Y-110113750D01*
X148477250Y-109982000D01*
X147447000Y-109982000D01*
X147193000Y-109982000D01*
X147173000Y-109982000D01*
X147173000Y-109728000D01*
X147193000Y-109728000D01*
X147193000Y-109708000D01*
X147447000Y-109708000D01*
X147447000Y-109728000D01*
X148477250Y-109728000D01*
X148609000Y-109596250D01*
X148609000Y-108988173D01*
X148528769Y-108794478D01*
X148380521Y-108646231D01*
X148353407Y-108635000D01*
X170130000Y-108635000D01*
X170130000Y-112273000D01*
X168033750Y-112273000D01*
X167902000Y-112404750D01*
X167902000Y-114173000D01*
X167922000Y-114173000D01*
X167922000Y-114427000D01*
X167902000Y-114427000D01*
X167902000Y-116195250D01*
X168033750Y-116327000D01*
X170130000Y-116327000D01*
X170130000Y-119652560D01*
X165275000Y-119652560D01*
X165027235Y-119701843D01*
X164817191Y-119842191D01*
X164676843Y-120052235D01*
X164627560Y-120300000D01*
X164627560Y-123300000D01*
X164676843Y-123547765D01*
X164817191Y-123757809D01*
X165027235Y-123898157D01*
X165275000Y-123947440D01*
X170130000Y-123947440D01*
X170130000Y-127585000D01*
X138480000Y-127585000D01*
X138480000Y-122667340D01*
X138822265Y-122667340D01*
X138920732Y-122898636D01*
X139473189Y-123098757D01*
X140060177Y-123072230D01*
X140479268Y-122898636D01*
X140577735Y-122667340D01*
X139700000Y-121789605D01*
X138822265Y-122667340D01*
X138480000Y-122667340D01*
X138480000Y-122418488D01*
X138642660Y-122487735D01*
X139520395Y-121610000D01*
X139879605Y-121610000D01*
X140757340Y-122487735D01*
X140988636Y-122389268D01*
X141188757Y-121836811D01*
X141173730Y-121504286D01*
X141685319Y-121504286D01*
X141756143Y-121712259D01*
X142226970Y-121874747D01*
X142724139Y-121844690D01*
X142742441Y-121837109D01*
X149144657Y-121837109D01*
X149446218Y-122566943D01*
X150004120Y-123125819D01*
X150733427Y-123428654D01*
X151523109Y-123429343D01*
X152252943Y-123127782D01*
X152811819Y-122569880D01*
X153114654Y-121840573D01*
X153115343Y-121050891D01*
X152813782Y-120321057D01*
X152255880Y-119762181D01*
X151526573Y-119459346D01*
X150736891Y-119458657D01*
X150007057Y-119760218D01*
X149448181Y-120318120D01*
X149145346Y-121047427D01*
X149144657Y-121837109D01*
X142742441Y-121837109D01*
X143043857Y-121712259D01*
X143114681Y-121504286D01*
X142400000Y-120789605D01*
X141685319Y-121504286D01*
X141173730Y-121504286D01*
X141162230Y-121249823D01*
X140988636Y-120830732D01*
X140757340Y-120732265D01*
X139879605Y-121610000D01*
X139520395Y-121610000D01*
X138642660Y-120732265D01*
X138480000Y-120801512D01*
X138480000Y-120552660D01*
X138822265Y-120552660D01*
X139700000Y-121430395D01*
X140577735Y-120552660D01*
X140528484Y-120436970D01*
X141135253Y-120436970D01*
X141165310Y-120934139D01*
X141297741Y-121253857D01*
X141505714Y-121324681D01*
X142220395Y-120610000D01*
X142579605Y-120610000D01*
X143294286Y-121324681D01*
X143502259Y-121253857D01*
X143664747Y-120783030D01*
X143634690Y-120285861D01*
X143502259Y-119966143D01*
X143294286Y-119895319D01*
X142579605Y-120610000D01*
X142220395Y-120610000D01*
X141505714Y-119895319D01*
X141297741Y-119966143D01*
X141135253Y-120436970D01*
X140528484Y-120436970D01*
X140479268Y-120321364D01*
X139926811Y-120121243D01*
X139339823Y-120147770D01*
X138920732Y-120321364D01*
X138822265Y-120552660D01*
X138480000Y-120552660D01*
X138480000Y-119715714D01*
X141685319Y-119715714D01*
X142400000Y-120430395D01*
X143114681Y-119715714D01*
X143043857Y-119507741D01*
X142573030Y-119345253D01*
X142075861Y-119375310D01*
X141756143Y-119507741D01*
X141685319Y-119715714D01*
X138480000Y-119715714D01*
X138480000Y-118480000D01*
X145112560Y-118480000D01*
X145112560Y-120280000D01*
X145161843Y-120527765D01*
X145302191Y-120737809D01*
X145512235Y-120878157D01*
X145760000Y-120927440D01*
X147610000Y-120927440D01*
X147857765Y-120878157D01*
X148067809Y-120737809D01*
X148208157Y-120527765D01*
X148257440Y-120280000D01*
X148257440Y-118480000D01*
X148208157Y-118232235D01*
X148067809Y-118022191D01*
X148064460Y-118019953D01*
X148137000Y-117844827D01*
X148137000Y-117098750D01*
X148005250Y-116967000D01*
X146812000Y-116967000D01*
X146812000Y-116987000D01*
X146558000Y-116987000D01*
X146558000Y-116967000D01*
X145364750Y-116967000D01*
X145233000Y-117098750D01*
X145233000Y-117844827D01*
X145305540Y-118019953D01*
X145302191Y-118022191D01*
X145161843Y-118232235D01*
X145112560Y-118480000D01*
X138480000Y-118480000D01*
X138480000Y-116504286D01*
X141685319Y-116504286D01*
X141756143Y-116712259D01*
X142226970Y-116874747D01*
X142724139Y-116844690D01*
X143043857Y-116712259D01*
X143114681Y-116504286D01*
X142400000Y-115789605D01*
X141685319Y-116504286D01*
X138480000Y-116504286D01*
X138480000Y-115667340D01*
X138822265Y-115667340D01*
X138920732Y-115898636D01*
X139473189Y-116098757D01*
X140060177Y-116072230D01*
X140479268Y-115898636D01*
X140577735Y-115667340D01*
X139700000Y-114789605D01*
X138822265Y-115667340D01*
X138480000Y-115667340D01*
X138480000Y-115418488D01*
X138642660Y-115487735D01*
X139520395Y-114610000D01*
X139879605Y-114610000D01*
X140757340Y-115487735D01*
X140876585Y-115436970D01*
X141135253Y-115436970D01*
X141165310Y-115934139D01*
X141297741Y-116253857D01*
X141505714Y-116324681D01*
X142220395Y-115610000D01*
X142579605Y-115610000D01*
X143294286Y-116324681D01*
X143502259Y-116253857D01*
X143646751Y-115835173D01*
X145233000Y-115835173D01*
X145233000Y-116581250D01*
X145364750Y-116713000D01*
X146558000Y-116713000D01*
X146558000Y-115544750D01*
X146812000Y-115544750D01*
X146812000Y-116713000D01*
X148005250Y-116713000D01*
X148137000Y-116581250D01*
X148137000Y-115835173D01*
X148056769Y-115641479D01*
X147908522Y-115493231D01*
X147714827Y-115413000D01*
X146943750Y-115413000D01*
X146812000Y-115544750D01*
X146558000Y-115544750D01*
X146426250Y-115413000D01*
X145655173Y-115413000D01*
X145461478Y-115493231D01*
X145313231Y-115641479D01*
X145233000Y-115835173D01*
X143646751Y-115835173D01*
X143664747Y-115783030D01*
X143634690Y-115285861D01*
X143502259Y-114966143D01*
X143294286Y-114895319D01*
X142579605Y-115610000D01*
X142220395Y-115610000D01*
X141505714Y-114895319D01*
X141297741Y-114966143D01*
X141135253Y-115436970D01*
X140876585Y-115436970D01*
X140988636Y-115389268D01*
X141188757Y-114836811D01*
X141183285Y-114715714D01*
X141685319Y-114715714D01*
X142400000Y-115430395D01*
X143114681Y-114715714D01*
X143061228Y-114558750D01*
X164748000Y-114558750D01*
X164748000Y-115904827D01*
X164828231Y-116098522D01*
X164976479Y-116246769D01*
X165170173Y-116327000D01*
X167516250Y-116327000D01*
X167648000Y-116195250D01*
X167648000Y-114427000D01*
X164879750Y-114427000D01*
X164748000Y-114558750D01*
X143061228Y-114558750D01*
X143043857Y-114507741D01*
X142573030Y-114345253D01*
X142075861Y-114375310D01*
X141756143Y-114507741D01*
X141685319Y-114715714D01*
X141183285Y-114715714D01*
X141162230Y-114249823D01*
X140988636Y-113830732D01*
X140757340Y-113732265D01*
X139879605Y-114610000D01*
X139520395Y-114610000D01*
X138642660Y-113732265D01*
X138480000Y-113801512D01*
X138480000Y-113552660D01*
X138822265Y-113552660D01*
X139700000Y-114430395D01*
X140577735Y-113552660D01*
X140479268Y-113321364D01*
X139926811Y-113121243D01*
X139339823Y-113147770D01*
X138920732Y-113321364D01*
X138822265Y-113552660D01*
X138480000Y-113552660D01*
X138480000Y-112653750D01*
X140951000Y-112653750D01*
X140951000Y-113261827D01*
X141031231Y-113455522D01*
X141179479Y-113603769D01*
X141373173Y-113684000D01*
X141981250Y-113684000D01*
X142113000Y-113552250D01*
X142113000Y-112522000D01*
X141082750Y-112522000D01*
X140951000Y-112653750D01*
X138480000Y-112653750D01*
X138480000Y-110113750D01*
X140951000Y-110113750D01*
X140951000Y-110721827D01*
X141031231Y-110915522D01*
X141179479Y-111063769D01*
X141327303Y-111125000D01*
X141179479Y-111186231D01*
X141031231Y-111334478D01*
X140951000Y-111528173D01*
X140951000Y-112136250D01*
X141082750Y-112268000D01*
X142113000Y-112268000D01*
X142113000Y-111237750D01*
X142000250Y-111125000D01*
X142113000Y-111012250D01*
X142113000Y-109982000D01*
X141082750Y-109982000D01*
X140951000Y-110113750D01*
X138480000Y-110113750D01*
X138480000Y-108635000D01*
X141206593Y-108635000D01*
X141179479Y-108646231D01*
X141179479Y-108646231D01*
G37*
X141179479Y-108646231D02*
X141031231Y-108794478D01*
X140951000Y-108988173D01*
X140951000Y-109596250D01*
X141082750Y-109728000D01*
X142113000Y-109728000D01*
X142113000Y-109708000D01*
X142367000Y-109708000D01*
X142367000Y-109728000D01*
X142387000Y-109728000D01*
X142387000Y-109982000D01*
X142367000Y-109982000D01*
X142367000Y-111012250D01*
X142479750Y-111125000D01*
X142367000Y-111237750D01*
X142367000Y-112268000D01*
X142387000Y-112268000D01*
X142387000Y-112522000D01*
X142367000Y-112522000D01*
X142367000Y-113552250D01*
X142498750Y-113684000D01*
X143106827Y-113684000D01*
X143300521Y-113603769D01*
X143448769Y-113455522D01*
X143450678Y-113450913D01*
X143560191Y-113614809D01*
X143770235Y-113755157D01*
X144018000Y-113804440D01*
X145542000Y-113804440D01*
X145789765Y-113755157D01*
X145999809Y-113614809D01*
X146109322Y-113450913D01*
X146111231Y-113455522D01*
X146259479Y-113603769D01*
X146453173Y-113684000D01*
X147061250Y-113684000D01*
X147193000Y-113552250D01*
X147193000Y-112522000D01*
X147447000Y-112522000D01*
X147447000Y-113552250D01*
X147578750Y-113684000D01*
X148186827Y-113684000D01*
X148380521Y-113603769D01*
X148528769Y-113455522D01*
X148609000Y-113261827D01*
X148609000Y-112695173D01*
X164748000Y-112695173D01*
X164748000Y-114041250D01*
X164879750Y-114173000D01*
X167648000Y-114173000D01*
X167648000Y-112404750D01*
X167516250Y-112273000D01*
X165170173Y-112273000D01*
X164976479Y-112353231D01*
X164828231Y-112501478D01*
X164748000Y-112695173D01*
X148609000Y-112695173D01*
X148609000Y-112653750D01*
X148477250Y-112522000D01*
X147447000Y-112522000D01*
X147193000Y-112522000D01*
X147173000Y-112522000D01*
X147173000Y-112268000D01*
X147193000Y-112268000D01*
X147193000Y-111237750D01*
X147080250Y-111125000D01*
X147193000Y-111012250D01*
X147193000Y-109982000D01*
X147447000Y-109982000D01*
X147447000Y-111012250D01*
X147559750Y-111125000D01*
X147447000Y-111237750D01*
X147447000Y-112268000D01*
X148477250Y-112268000D01*
X148609000Y-112136250D01*
X148609000Y-111528173D01*
X148528769Y-111334478D01*
X148380521Y-111186231D01*
X148232697Y-111125000D01*
X148380521Y-111063769D01*
X148528769Y-110915522D01*
X148609000Y-110721827D01*
X148609000Y-110113750D01*
X148477250Y-109982000D01*
X147447000Y-109982000D01*
X147193000Y-109982000D01*
X147173000Y-109982000D01*
X147173000Y-109728000D01*
X147193000Y-109728000D01*
X147193000Y-109708000D01*
X147447000Y-109708000D01*
X147447000Y-109728000D01*
X148477250Y-109728000D01*
X148609000Y-109596250D01*
X148609000Y-108988173D01*
X148528769Y-108794478D01*
X148380521Y-108646231D01*
X148353407Y-108635000D01*
X170130000Y-108635000D01*
X170130000Y-112273000D01*
X168033750Y-112273000D01*
X167902000Y-112404750D01*
X167902000Y-114173000D01*
X167922000Y-114173000D01*
X167922000Y-114427000D01*
X167902000Y-114427000D01*
X167902000Y-116195250D01*
X168033750Y-116327000D01*
X170130000Y-116327000D01*
X170130000Y-119652560D01*
X165275000Y-119652560D01*
X165027235Y-119701843D01*
X164817191Y-119842191D01*
X164676843Y-120052235D01*
X164627560Y-120300000D01*
X164627560Y-123300000D01*
X164676843Y-123547765D01*
X164817191Y-123757809D01*
X165027235Y-123898157D01*
X165275000Y-123947440D01*
X170130000Y-123947440D01*
X170130000Y-127585000D01*
X138480000Y-127585000D01*
X138480000Y-122667340D01*
X138822265Y-122667340D01*
X138920732Y-122898636D01*
X139473189Y-123098757D01*
X140060177Y-123072230D01*
X140479268Y-122898636D01*
X140577735Y-122667340D01*
X139700000Y-121789605D01*
X138822265Y-122667340D01*
X138480000Y-122667340D01*
X138480000Y-122418488D01*
X138642660Y-122487735D01*
X139520395Y-121610000D01*
X139879605Y-121610000D01*
X140757340Y-122487735D01*
X140988636Y-122389268D01*
X141188757Y-121836811D01*
X141173730Y-121504286D01*
X141685319Y-121504286D01*
X141756143Y-121712259D01*
X142226970Y-121874747D01*
X142724139Y-121844690D01*
X142742441Y-121837109D01*
X149144657Y-121837109D01*
X149446218Y-122566943D01*
X150004120Y-123125819D01*
X150733427Y-123428654D01*
X151523109Y-123429343D01*
X152252943Y-123127782D01*
X152811819Y-122569880D01*
X153114654Y-121840573D01*
X153115343Y-121050891D01*
X152813782Y-120321057D01*
X152255880Y-119762181D01*
X151526573Y-119459346D01*
X150736891Y-119458657D01*
X150007057Y-119760218D01*
X149448181Y-120318120D01*
X149145346Y-121047427D01*
X149144657Y-121837109D01*
X142742441Y-121837109D01*
X143043857Y-121712259D01*
X143114681Y-121504286D01*
X142400000Y-120789605D01*
X141685319Y-121504286D01*
X141173730Y-121504286D01*
X141162230Y-121249823D01*
X140988636Y-120830732D01*
X140757340Y-120732265D01*
X139879605Y-121610000D01*
X139520395Y-121610000D01*
X138642660Y-120732265D01*
X138480000Y-120801512D01*
X138480000Y-120552660D01*
X138822265Y-120552660D01*
X139700000Y-121430395D01*
X140577735Y-120552660D01*
X140528484Y-120436970D01*
X141135253Y-120436970D01*
X141165310Y-120934139D01*
X141297741Y-121253857D01*
X141505714Y-121324681D01*
X142220395Y-120610000D01*
X142579605Y-120610000D01*
X143294286Y-121324681D01*
X143502259Y-121253857D01*
X143664747Y-120783030D01*
X143634690Y-120285861D01*
X143502259Y-119966143D01*
X143294286Y-119895319D01*
X142579605Y-120610000D01*
X142220395Y-120610000D01*
X141505714Y-119895319D01*
X141297741Y-119966143D01*
X141135253Y-120436970D01*
X140528484Y-120436970D01*
X140479268Y-120321364D01*
X139926811Y-120121243D01*
X139339823Y-120147770D01*
X138920732Y-120321364D01*
X138822265Y-120552660D01*
X138480000Y-120552660D01*
X138480000Y-119715714D01*
X141685319Y-119715714D01*
X142400000Y-120430395D01*
X143114681Y-119715714D01*
X143043857Y-119507741D01*
X142573030Y-119345253D01*
X142075861Y-119375310D01*
X141756143Y-119507741D01*
X141685319Y-119715714D01*
X138480000Y-119715714D01*
X138480000Y-118480000D01*
X145112560Y-118480000D01*
X145112560Y-120280000D01*
X145161843Y-120527765D01*
X145302191Y-120737809D01*
X145512235Y-120878157D01*
X145760000Y-120927440D01*
X147610000Y-120927440D01*
X147857765Y-120878157D01*
X148067809Y-120737809D01*
X148208157Y-120527765D01*
X148257440Y-120280000D01*
X148257440Y-118480000D01*
X148208157Y-118232235D01*
X148067809Y-118022191D01*
X148064460Y-118019953D01*
X148137000Y-117844827D01*
X148137000Y-117098750D01*
X148005250Y-116967000D01*
X146812000Y-116967000D01*
X146812000Y-116987000D01*
X146558000Y-116987000D01*
X146558000Y-116967000D01*
X145364750Y-116967000D01*
X145233000Y-117098750D01*
X145233000Y-117844827D01*
X145305540Y-118019953D01*
X145302191Y-118022191D01*
X145161843Y-118232235D01*
X145112560Y-118480000D01*
X138480000Y-118480000D01*
X138480000Y-116504286D01*
X141685319Y-116504286D01*
X141756143Y-116712259D01*
X142226970Y-116874747D01*
X142724139Y-116844690D01*
X143043857Y-116712259D01*
X143114681Y-116504286D01*
X142400000Y-115789605D01*
X141685319Y-116504286D01*
X138480000Y-116504286D01*
X138480000Y-115667340D01*
X138822265Y-115667340D01*
X138920732Y-115898636D01*
X139473189Y-116098757D01*
X140060177Y-116072230D01*
X140479268Y-115898636D01*
X140577735Y-115667340D01*
X139700000Y-114789605D01*
X138822265Y-115667340D01*
X138480000Y-115667340D01*
X138480000Y-115418488D01*
X138642660Y-115487735D01*
X139520395Y-114610000D01*
X139879605Y-114610000D01*
X140757340Y-115487735D01*
X140876585Y-115436970D01*
X141135253Y-115436970D01*
X141165310Y-115934139D01*
X141297741Y-116253857D01*
X141505714Y-116324681D01*
X142220395Y-115610000D01*
X142579605Y-115610000D01*
X143294286Y-116324681D01*
X143502259Y-116253857D01*
X143646751Y-115835173D01*
X145233000Y-115835173D01*
X145233000Y-116581250D01*
X145364750Y-116713000D01*
X146558000Y-116713000D01*
X146558000Y-115544750D01*
X146812000Y-115544750D01*
X146812000Y-116713000D01*
X148005250Y-116713000D01*
X148137000Y-116581250D01*
X148137000Y-115835173D01*
X148056769Y-115641479D01*
X147908522Y-115493231D01*
X147714827Y-115413000D01*
X146943750Y-115413000D01*
X146812000Y-115544750D01*
X146558000Y-115544750D01*
X146426250Y-115413000D01*
X145655173Y-115413000D01*
X145461478Y-115493231D01*
X145313231Y-115641479D01*
X145233000Y-115835173D01*
X143646751Y-115835173D01*
X143664747Y-115783030D01*
X143634690Y-115285861D01*
X143502259Y-114966143D01*
X143294286Y-114895319D01*
X142579605Y-115610000D01*
X142220395Y-115610000D01*
X141505714Y-114895319D01*
X141297741Y-114966143D01*
X141135253Y-115436970D01*
X140876585Y-115436970D01*
X140988636Y-115389268D01*
X141188757Y-114836811D01*
X141183285Y-114715714D01*
X141685319Y-114715714D01*
X142400000Y-115430395D01*
X143114681Y-114715714D01*
X143061228Y-114558750D01*
X164748000Y-114558750D01*
X164748000Y-115904827D01*
X164828231Y-116098522D01*
X164976479Y-116246769D01*
X165170173Y-116327000D01*
X167516250Y-116327000D01*
X167648000Y-116195250D01*
X167648000Y-114427000D01*
X164879750Y-114427000D01*
X164748000Y-114558750D01*
X143061228Y-114558750D01*
X143043857Y-114507741D01*
X142573030Y-114345253D01*
X142075861Y-114375310D01*
X141756143Y-114507741D01*
X141685319Y-114715714D01*
X141183285Y-114715714D01*
X141162230Y-114249823D01*
X140988636Y-113830732D01*
X140757340Y-113732265D01*
X139879605Y-114610000D01*
X139520395Y-114610000D01*
X138642660Y-113732265D01*
X138480000Y-113801512D01*
X138480000Y-113552660D01*
X138822265Y-113552660D01*
X139700000Y-114430395D01*
X140577735Y-113552660D01*
X140479268Y-113321364D01*
X139926811Y-113121243D01*
X139339823Y-113147770D01*
X138920732Y-113321364D01*
X138822265Y-113552660D01*
X138480000Y-113552660D01*
X138480000Y-112653750D01*
X140951000Y-112653750D01*
X140951000Y-113261827D01*
X141031231Y-113455522D01*
X141179479Y-113603769D01*
X141373173Y-113684000D01*
X141981250Y-113684000D01*
X142113000Y-113552250D01*
X142113000Y-112522000D01*
X141082750Y-112522000D01*
X140951000Y-112653750D01*
X138480000Y-112653750D01*
X138480000Y-110113750D01*
X140951000Y-110113750D01*
X140951000Y-110721827D01*
X141031231Y-110915522D01*
X141179479Y-111063769D01*
X141327303Y-111125000D01*
X141179479Y-111186231D01*
X141031231Y-111334478D01*
X140951000Y-111528173D01*
X140951000Y-112136250D01*
X141082750Y-112268000D01*
X142113000Y-112268000D01*
X142113000Y-111237750D01*
X142000250Y-111125000D01*
X142113000Y-111012250D01*
X142113000Y-109982000D01*
X141082750Y-109982000D01*
X140951000Y-110113750D01*
X138480000Y-110113750D01*
X138480000Y-108635000D01*
X141206593Y-108635000D01*
X141179479Y-108646231D01*
M02*
