G04 #@! TF.FileFunction,Soldermask,Bot*
%FSLAX46Y46*%
G04 Gerber Fmt 4.6, Leading zero omitted, Abs format (unit mm)*
G04 Created by KiCad (PCBNEW (2016-09-17 revision 679eef1)-makepkg) date 10/14/16 09:08:13*
%MOMM*%
%LPD*%
G01*
G04 APERTURE LIST*
%ADD10C,0.100000*%
G04 APERTURE END LIST*
D10*
G36*
X170221000Y-123493000D02*
X164821000Y-123493000D01*
X164821000Y-120093000D01*
X170221000Y-120093000D01*
X170221000Y-123493000D01*
X170221000Y-123493000D01*
G37*
G36*
X151292804Y-119895029D02*
X151590569Y-119956151D01*
X151870786Y-120073943D01*
X152122793Y-120243923D01*
X152336980Y-120459611D01*
X152505193Y-120712794D01*
X152621030Y-120993835D01*
X152679934Y-121291322D01*
X152679934Y-121291342D01*
X152680067Y-121292015D01*
X152675219Y-121639207D01*
X152675067Y-121639875D01*
X152675067Y-121639893D01*
X152607878Y-121935625D01*
X152484241Y-122213320D01*
X152309025Y-122461704D01*
X152088897Y-122671329D01*
X151832240Y-122834208D01*
X151548848Y-122944129D01*
X151249489Y-122996915D01*
X150945585Y-122990548D01*
X150648704Y-122925274D01*
X150370159Y-122803582D01*
X150120550Y-122630098D01*
X149909395Y-122411441D01*
X149744731Y-122155932D01*
X149632829Y-121873303D01*
X149577958Y-121574329D01*
X149582202Y-121270389D01*
X149645402Y-120973054D01*
X149765147Y-120693668D01*
X149936884Y-120442854D01*
X150154059Y-120230180D01*
X150408417Y-120063733D01*
X150690249Y-119949865D01*
X150988839Y-119892906D01*
X151292804Y-119895029D01*
X151292804Y-119895029D01*
G37*
G36*
X139820789Y-120460763D02*
X140041716Y-120506112D01*
X140249614Y-120593504D01*
X140436588Y-120719620D01*
X140595501Y-120879646D01*
X140720305Y-121067491D01*
X140806248Y-121276004D01*
X140849916Y-121496547D01*
X140849916Y-121496564D01*
X140850049Y-121497237D01*
X140846452Y-121754831D01*
X140846301Y-121755494D01*
X140846301Y-121755518D01*
X140796492Y-121974751D01*
X140704760Y-122180785D01*
X140574758Y-122365074D01*
X140411440Y-122520599D01*
X140221020Y-122641444D01*
X140010754Y-122723000D01*
X139788653Y-122762163D01*
X139563175Y-122757439D01*
X139342910Y-122709012D01*
X139136245Y-122618722D01*
X138951054Y-122490011D01*
X138794389Y-122327779D01*
X138672218Y-122138207D01*
X138589196Y-121928517D01*
X138548484Y-121706695D01*
X138551633Y-121481193D01*
X138598523Y-121260592D01*
X138687369Y-121053298D01*
X138814784Y-120867214D01*
X138975917Y-120709421D01*
X139164628Y-120585932D01*
X139373733Y-120501448D01*
X139595267Y-120459187D01*
X139820789Y-120460763D01*
X139820789Y-120460763D01*
G37*
G36*
X142497157Y-119685612D02*
X142674857Y-119722088D01*
X142842083Y-119792383D01*
X142992475Y-119893824D01*
X143120296Y-120022540D01*
X143220681Y-120173633D01*
X143289809Y-120341351D01*
X143324907Y-120518610D01*
X143324907Y-120518626D01*
X143325040Y-120519299D01*
X143322147Y-120726494D01*
X143321995Y-120727162D01*
X143321995Y-120727181D01*
X143281962Y-120903387D01*
X143208177Y-121069110D01*
X143103611Y-121217343D01*
X142972247Y-121342440D01*
X142819078Y-121439643D01*
X142649960Y-121505240D01*
X142471308Y-121536741D01*
X142289946Y-121532942D01*
X142112774Y-121493988D01*
X141946544Y-121421364D01*
X141797586Y-121317836D01*
X141671573Y-121187345D01*
X141573305Y-121034863D01*
X141506526Y-120866198D01*
X141473779Y-120687776D01*
X141476312Y-120506394D01*
X141514028Y-120328954D01*
X141585491Y-120162217D01*
X141687978Y-120012540D01*
X141817581Y-119885623D01*
X141969378Y-119786290D01*
X142137567Y-119718337D01*
X142315758Y-119684345D01*
X142497157Y-119685612D01*
X142497157Y-119685612D01*
G37*
G36*
X147810000Y-120480000D02*
X145560000Y-120480000D01*
X145560000Y-118280000D01*
X147810000Y-118280000D01*
X147810000Y-120480000D01*
X147810000Y-120480000D01*
G37*
G36*
X147810000Y-117940000D02*
X145560000Y-117940000D01*
X145560000Y-115740000D01*
X147810000Y-115740000D01*
X147810000Y-117940000D01*
X147810000Y-117940000D01*
G37*
G36*
X142497157Y-114685612D02*
X142674857Y-114722088D01*
X142842083Y-114792383D01*
X142992475Y-114893824D01*
X143120296Y-115022540D01*
X143220681Y-115173633D01*
X143289809Y-115341351D01*
X143324907Y-115518610D01*
X143324907Y-115518626D01*
X143325040Y-115519299D01*
X143322147Y-115726494D01*
X143321995Y-115727162D01*
X143321995Y-115727181D01*
X143281962Y-115903387D01*
X143208177Y-116069110D01*
X143103611Y-116217343D01*
X142972247Y-116342440D01*
X142819078Y-116439643D01*
X142649960Y-116505240D01*
X142471308Y-116536741D01*
X142289946Y-116532942D01*
X142112774Y-116493988D01*
X141946544Y-116421364D01*
X141797586Y-116317836D01*
X141671573Y-116187345D01*
X141573305Y-116034863D01*
X141506526Y-115866198D01*
X141473779Y-115687776D01*
X141476312Y-115506394D01*
X141514028Y-115328954D01*
X141585491Y-115162217D01*
X141687978Y-115012540D01*
X141817581Y-114885623D01*
X141969378Y-114786290D01*
X142137567Y-114718337D01*
X142315758Y-114684345D01*
X142497157Y-114685612D01*
X142497157Y-114685612D01*
G37*
G36*
X170221000Y-115993000D02*
X164821000Y-115993000D01*
X164821000Y-112593000D01*
X170221000Y-112593000D01*
X170221000Y-115993000D01*
X170221000Y-115993000D01*
G37*
G36*
X139820789Y-113460763D02*
X140041716Y-113506112D01*
X140249614Y-113593504D01*
X140436588Y-113719620D01*
X140595501Y-113879646D01*
X140720305Y-114067491D01*
X140806248Y-114276004D01*
X140849916Y-114496547D01*
X140849916Y-114496564D01*
X140850049Y-114497237D01*
X140846452Y-114754831D01*
X140846301Y-114755494D01*
X140846301Y-114755518D01*
X140796492Y-114974751D01*
X140704760Y-115180785D01*
X140574758Y-115365074D01*
X140411440Y-115520599D01*
X140221020Y-115641444D01*
X140010754Y-115723000D01*
X139788653Y-115762163D01*
X139563175Y-115757439D01*
X139342910Y-115709012D01*
X139136245Y-115618722D01*
X138951054Y-115490011D01*
X138794389Y-115327779D01*
X138672218Y-115138207D01*
X138589196Y-114928517D01*
X138548484Y-114706695D01*
X138551633Y-114481193D01*
X138598523Y-114260592D01*
X138687369Y-114053298D01*
X138814784Y-113867214D01*
X138975917Y-113709421D01*
X139164628Y-113585932D01*
X139373733Y-113501448D01*
X139595267Y-113459187D01*
X139820789Y-113460763D01*
X139820789Y-113460763D01*
G37*
G36*
X148282000Y-113357000D02*
X146358000Y-113357000D01*
X146358000Y-111433000D01*
X148282000Y-111433000D01*
X148282000Y-113357000D01*
X148282000Y-113357000D01*
G37*
G36*
X145742000Y-113357000D02*
X143818000Y-113357000D01*
X143818000Y-111433000D01*
X145742000Y-111433000D01*
X145742000Y-113357000D01*
X145742000Y-113357000D01*
G37*
G36*
X143202000Y-113357000D02*
X141278000Y-113357000D01*
X141278000Y-111433000D01*
X143202000Y-111433000D01*
X143202000Y-113357000D01*
X143202000Y-113357000D01*
G37*
G36*
X143202000Y-110817000D02*
X141278000Y-110817000D01*
X141278000Y-108893000D01*
X143202000Y-108893000D01*
X143202000Y-110817000D01*
X143202000Y-110817000D01*
G37*
G36*
X145742000Y-110817000D02*
X143818000Y-110817000D01*
X143818000Y-108893000D01*
X145742000Y-108893000D01*
X145742000Y-110817000D01*
X145742000Y-110817000D01*
G37*
G36*
X148282000Y-110817000D02*
X146358000Y-110817000D01*
X146358000Y-108893000D01*
X148282000Y-108893000D01*
X148282000Y-110817000D01*
X148282000Y-110817000D01*
G37*
M02*
