M48
;DRILL file {KiCad (2016-09-17 revision 679eef1)-makepkg} date 10/14/16 09:08:16
;FORMAT={3:3/ absolute / metric / suppress leading zeros}
FMAT,2
METRIC,TZ
T1C0.400
T2C0.850
T3C0.889
T4C0.900
T5C0.950
T6C1.300
%
G90
G05
M71
T1
X140716Y-126746
X141732Y-122936
X149809Y-114452
X153670Y-116625
X153670Y-117475
X154495Y-116625
X154495Y-117475
X155320Y-116625
X155320Y-117475
X155956Y-110744
X156145Y-116625
X156145Y-117475
X157480Y-112268
X165608Y-112014
X167132Y-111252
X168910Y-112014
T2
X142400Y-115610
X142400Y-120610
T3
X142240Y-109855
X142240Y-112395
X144780Y-109855
X144780Y-112395
X147320Y-109855
X147320Y-112395
T4
X146685Y-116840
X146685Y-119380
T5
X168021Y-114293
X168021Y-121793
T6
X139700Y-114610
X139700Y-121610
T0
M30
