G04 #@! TF.FileFunction,Legend,Bot*
%FSLAX46Y46*%
G04 Gerber Fmt 4.6, Leading zero omitted, Abs format (unit mm)*
G04 Created by KiCad (PCBNEW 4.1.0-alpha+201608181240+7066~46~ubuntu16.04.1-product) date Fri Aug 19 11:00:01 2016*
%MOMM*%
%LPD*%
G01*
G04 APERTURE LIST*
%ADD10C,0.100000*%
%ADD11C,0.300000*%
%ADD12C,0.250000*%
%ADD13C,0.200000*%
%ADD14C,0.150000*%
%ADD15C,0.010000*%
G04 APERTURE END LIST*
D10*
D11*
X140505571Y-110593285D02*
X139005571Y-110593285D01*
X140505571Y-111307571D02*
X139005571Y-111307571D01*
X140505571Y-112164714D01*
X139005571Y-112164714D01*
X162246000Y-121693714D02*
X162317428Y-121765142D01*
X162531714Y-121836571D01*
X162674571Y-121836571D01*
X162888857Y-121765142D01*
X163031714Y-121622285D01*
X163103142Y-121479428D01*
X163174571Y-121193714D01*
X163174571Y-120979428D01*
X163103142Y-120693714D01*
X163031714Y-120550857D01*
X162888857Y-120408000D01*
X162674571Y-120336571D01*
X162531714Y-120336571D01*
X162317428Y-120408000D01*
X162246000Y-120479428D01*
X161603142Y-121836571D02*
X161603142Y-120336571D01*
X160960285Y-121836571D02*
X160960285Y-121050857D01*
X161031714Y-120908000D01*
X161174571Y-120836571D01*
X161388857Y-120836571D01*
X161531714Y-120908000D01*
X161603142Y-120979428D01*
X159603142Y-121836571D02*
X159603142Y-121050857D01*
X159674571Y-120908000D01*
X159817428Y-120836571D01*
X160103142Y-120836571D01*
X160246000Y-120908000D01*
X159603142Y-121765142D02*
X159746000Y-121836571D01*
X160103142Y-121836571D01*
X160246000Y-121765142D01*
X160317428Y-121622285D01*
X160317428Y-121479428D01*
X160246000Y-121336571D01*
X160103142Y-121265142D01*
X159746000Y-121265142D01*
X159603142Y-121193714D01*
X158888857Y-121836571D02*
X158888857Y-120836571D01*
X158888857Y-121122285D02*
X158817428Y-120979428D01*
X158746000Y-120908000D01*
X158603142Y-120836571D01*
X158460285Y-120836571D01*
X157317428Y-120836571D02*
X157317428Y-122050857D01*
X157388857Y-122193714D01*
X157460285Y-122265142D01*
X157603142Y-122336571D01*
X157817428Y-122336571D01*
X157960285Y-122265142D01*
X157317428Y-121765142D02*
X157460285Y-121836571D01*
X157746000Y-121836571D01*
X157888857Y-121765142D01*
X157960285Y-121693714D01*
X158031714Y-121550857D01*
X158031714Y-121122285D01*
X157960285Y-120979428D01*
X157888857Y-120908000D01*
X157746000Y-120836571D01*
X157460285Y-120836571D01*
X157317428Y-120908000D01*
X156603142Y-121836571D02*
X156603142Y-120836571D01*
X156603142Y-120336571D02*
X156674571Y-120408000D01*
X156603142Y-120479428D01*
X156531714Y-120408000D01*
X156603142Y-120336571D01*
X156603142Y-120479428D01*
X155888857Y-120836571D02*
X155888857Y-121836571D01*
X155888857Y-120979428D02*
X155817428Y-120908000D01*
X155674571Y-120836571D01*
X155460285Y-120836571D01*
X155317428Y-120908000D01*
X155246000Y-121050857D01*
X155246000Y-121836571D01*
X153888857Y-120836571D02*
X153888857Y-122050857D01*
X153960285Y-122193714D01*
X154031714Y-122265142D01*
X154174571Y-122336571D01*
X154388857Y-122336571D01*
X154531714Y-122265142D01*
X153888857Y-121765142D02*
X154031714Y-121836571D01*
X154317428Y-121836571D01*
X154460285Y-121765142D01*
X154531714Y-121693714D01*
X154603142Y-121550857D01*
X154603142Y-121122285D01*
X154531714Y-120979428D01*
X154460285Y-120908000D01*
X154317428Y-120836571D01*
X154031714Y-120836571D01*
X153888857Y-120908000D01*
X158609476Y-126337142D02*
X158685666Y-126418095D01*
X158914238Y-126499047D01*
X159066619Y-126499047D01*
X159295190Y-126418095D01*
X159447571Y-126256190D01*
X159523761Y-126094285D01*
X159599952Y-125770476D01*
X159599952Y-125527619D01*
X159523761Y-125203809D01*
X159447571Y-125041904D01*
X159295190Y-124880000D01*
X159066619Y-124799047D01*
X158914238Y-124799047D01*
X158685666Y-124880000D01*
X158609476Y-124960952D01*
X157999952Y-126013333D02*
X157238047Y-126013333D01*
X158152333Y-126499047D02*
X157619000Y-124799047D01*
X157085666Y-126499047D01*
X156552333Y-126499047D02*
X156552333Y-124799047D01*
X155942809Y-124799047D01*
X155790428Y-124880000D01*
X155714238Y-124960952D01*
X155638047Y-125122857D01*
X155638047Y-125365714D01*
X155714238Y-125527619D01*
X155790428Y-125608571D01*
X155942809Y-125689523D01*
X156552333Y-125689523D01*
X154190428Y-126499047D02*
X154952333Y-126499047D01*
X154952333Y-124799047D01*
X153657095Y-126499047D02*
X153657095Y-124799047D01*
X152057095Y-124880000D02*
X152209476Y-124799047D01*
X152438047Y-124799047D01*
X152666619Y-124880000D01*
X152819000Y-125041904D01*
X152895190Y-125203809D01*
X152971380Y-125527619D01*
X152971380Y-125770476D01*
X152895190Y-126094285D01*
X152819000Y-126256190D01*
X152666619Y-126418095D01*
X152438047Y-126499047D01*
X152285666Y-126499047D01*
X152057095Y-126418095D01*
X151980904Y-126337142D01*
X151980904Y-125770476D01*
X152285666Y-125770476D01*
X151295190Y-126499047D02*
X151295190Y-124799047D01*
X151295190Y-125608571D02*
X150380904Y-125608571D01*
X150380904Y-126499047D02*
X150380904Y-124799047D01*
X149847571Y-124799047D02*
X148933285Y-124799047D01*
X149390428Y-126499047D02*
X149390428Y-124799047D01*
X148095190Y-124799047D02*
X147942809Y-124799047D01*
X147790428Y-124880000D01*
X147714238Y-124960952D01*
X147638047Y-125122857D01*
X147561857Y-125446666D01*
X147561857Y-125851428D01*
X147638047Y-126175238D01*
X147714238Y-126337142D01*
X147790428Y-126418095D01*
X147942809Y-126499047D01*
X148095190Y-126499047D01*
X148247571Y-126418095D01*
X148323761Y-126337142D01*
X148399952Y-126175238D01*
X148476142Y-125851428D01*
X148476142Y-125446666D01*
X148399952Y-125122857D01*
X148323761Y-124960952D01*
X148247571Y-124880000D01*
X148095190Y-124799047D01*
X146038047Y-126499047D02*
X146952333Y-126499047D01*
X146495190Y-126499047D02*
X146495190Y-124799047D01*
X146647571Y-125041904D01*
X146799952Y-125203809D01*
X146952333Y-125284761D01*
X144819000Y-125608571D02*
X144590428Y-125689523D01*
X144514238Y-125770476D01*
X144438047Y-125932380D01*
X144438047Y-126175238D01*
X144514238Y-126337142D01*
X144590428Y-126418095D01*
X144742809Y-126499047D01*
X145352333Y-126499047D01*
X145352333Y-124799047D01*
X144819000Y-124799047D01*
X144666619Y-124880000D01*
X144590428Y-124960952D01*
X144514238Y-125122857D01*
X144514238Y-125284761D01*
X144590428Y-125446666D01*
X144666619Y-125527619D01*
X144819000Y-125608571D01*
X145352333Y-125608571D01*
D12*
X152155428Y-118449657D02*
X152726857Y-118449657D01*
X152726857Y-117249657D01*
X151755428Y-117821085D02*
X151355428Y-117821085D01*
X151184000Y-118449657D02*
X151755428Y-118449657D01*
X151755428Y-117249657D01*
X151184000Y-117249657D01*
X150669714Y-118449657D02*
X150669714Y-117249657D01*
X150384000Y-117249657D01*
X150212571Y-117306800D01*
X150098285Y-117421085D01*
X150041142Y-117535371D01*
X149984000Y-117763942D01*
X149984000Y-117935371D01*
X150041142Y-118163942D01*
X150098285Y-118278228D01*
X150212571Y-118392514D01*
X150384000Y-118449657D01*
X150669714Y-118449657D01*
D13*
X147828000Y-115824000D02*
X145542000Y-115824000D01*
X147828000Y-120396000D02*
X147828000Y-115824000D01*
X145542000Y-120396000D02*
X147828000Y-120396000D01*
X145542000Y-115824000D02*
X145542000Y-120396000D01*
X141224000Y-113284000D02*
X141224000Y-108712000D01*
X148336000Y-113284000D02*
X141224000Y-113284000D01*
X148336000Y-108712000D02*
X148336000Y-113284000D01*
X141224000Y-108712000D02*
X148336000Y-108712000D01*
D11*
X168681304Y-125034657D02*
X167157495Y-125034657D01*
X167919400Y-125796561D02*
X167919400Y-124272752D01*
D14*
X169275000Y-114300000D02*
G75*
G03X169275000Y-114300000I-1000000J0D01*
G01*
D15*
G36*
X160468166Y-111914359D02*
X160192802Y-111934179D01*
X159964698Y-111970995D01*
X159921190Y-111981949D01*
X159570231Y-112107557D01*
X159277918Y-112274032D01*
X159048499Y-112478358D01*
X158886311Y-112717334D01*
X158799958Y-112972423D01*
X158786539Y-113234344D01*
X158842251Y-113495114D01*
X158963292Y-113746748D01*
X159145859Y-113981262D01*
X159386149Y-114190672D01*
X159669405Y-114361574D01*
X160065284Y-114520036D01*
X160460917Y-114602043D01*
X160852568Y-114607542D01*
X161236502Y-114536482D01*
X161608984Y-114388811D01*
X161609710Y-114388442D01*
X161757376Y-114317793D01*
X161886766Y-114264041D01*
X161976436Y-114235819D01*
X161994571Y-114233569D01*
X162070921Y-114260840D01*
X162162475Y-114328857D01*
X162188722Y-114354932D01*
X162267881Y-114461521D01*
X162299141Y-114577779D01*
X162302093Y-114649950D01*
X162264990Y-114866564D01*
X162155544Y-115058700D01*
X161976549Y-115223383D01*
X161730801Y-115357638D01*
X161586842Y-115411420D01*
X161465205Y-115448336D01*
X161351945Y-115473811D01*
X161228329Y-115489769D01*
X161075622Y-115498133D01*
X160875089Y-115500830D01*
X160719477Y-115500503D01*
X160481408Y-115497914D01*
X160302016Y-115491473D01*
X160161840Y-115478874D01*
X160041421Y-115457811D01*
X159921296Y-115425976D01*
X159820708Y-115393982D01*
X159481813Y-115253020D01*
X159195751Y-115067725D01*
X158944013Y-114825673D01*
X158903676Y-114778438D01*
X158797055Y-114658276D01*
X158732841Y-114603073D01*
X158712216Y-114611387D01*
X158736363Y-114681781D01*
X158806467Y-114812812D01*
X158835341Y-114861580D01*
X159028176Y-115127250D01*
X159259425Y-115340992D01*
X159539260Y-115509814D01*
X159877856Y-115640722D01*
X160027951Y-115682992D01*
X160190882Y-115715673D01*
X160398340Y-115743988D01*
X160628141Y-115766324D01*
X160858101Y-115781066D01*
X161066036Y-115786603D01*
X161229764Y-115781322D01*
X161286093Y-115774478D01*
X161628928Y-115704142D01*
X161908983Y-115621283D01*
X162141344Y-115520104D01*
X162341094Y-115394807D01*
X162406345Y-115343977D01*
X162606660Y-115133660D01*
X162739448Y-114891317D01*
X162801750Y-114626859D01*
X162790609Y-114350194D01*
X162750444Y-114191382D01*
X162642731Y-113978665D01*
X162469299Y-113771411D01*
X162242557Y-113577222D01*
X161974910Y-113403697D01*
X161678767Y-113258438D01*
X161366532Y-113149044D01*
X161050614Y-113083117D01*
X160920380Y-113070254D01*
X160575159Y-113074124D01*
X160264983Y-113135937D01*
X159967686Y-113260393D01*
X159931589Y-113279889D01*
X159753606Y-113367539D01*
X159617738Y-113405491D01*
X159507238Y-113395457D01*
X159405356Y-113339151D01*
X159399132Y-113334323D01*
X159302003Y-113213255D01*
X159266039Y-113061816D01*
X159287742Y-112893533D01*
X159363616Y-112721931D01*
X159490164Y-112560538D01*
X159628909Y-112445560D01*
X159787740Y-112349627D01*
X159951091Y-112279545D01*
X160135131Y-112231721D01*
X160356031Y-112202565D01*
X160629963Y-112188483D01*
X160797631Y-112185932D01*
X161109553Y-112189054D01*
X161364015Y-112205482D01*
X161581112Y-112238876D01*
X161780940Y-112292894D01*
X161983594Y-112371195D01*
X162095887Y-112422309D01*
X162262503Y-112522065D01*
X162445987Y-112664827D01*
X162620531Y-112828121D01*
X162760332Y-112989478D01*
X162782049Y-113019827D01*
X162838449Y-113089587D01*
X162864394Y-113096039D01*
X162859519Y-113048002D01*
X162823454Y-112954300D01*
X162787793Y-112881918D01*
X162595796Y-112600053D01*
X162340328Y-112361385D01*
X162024482Y-112168160D01*
X161651354Y-112022620D01*
X161571899Y-111999911D01*
X161342658Y-111954309D01*
X161066611Y-111924679D01*
X160767275Y-111911277D01*
X160468166Y-111914359D01*
X160468166Y-111914359D01*
G37*
X160468166Y-111914359D02*
X160192802Y-111934179D01*
X159964698Y-111970995D01*
X159921190Y-111981949D01*
X159570231Y-112107557D01*
X159277918Y-112274032D01*
X159048499Y-112478358D01*
X158886311Y-112717334D01*
X158799958Y-112972423D01*
X158786539Y-113234344D01*
X158842251Y-113495114D01*
X158963292Y-113746748D01*
X159145859Y-113981262D01*
X159386149Y-114190672D01*
X159669405Y-114361574D01*
X160065284Y-114520036D01*
X160460917Y-114602043D01*
X160852568Y-114607542D01*
X161236502Y-114536482D01*
X161608984Y-114388811D01*
X161609710Y-114388442D01*
X161757376Y-114317793D01*
X161886766Y-114264041D01*
X161976436Y-114235819D01*
X161994571Y-114233569D01*
X162070921Y-114260840D01*
X162162475Y-114328857D01*
X162188722Y-114354932D01*
X162267881Y-114461521D01*
X162299141Y-114577779D01*
X162302093Y-114649950D01*
X162264990Y-114866564D01*
X162155544Y-115058700D01*
X161976549Y-115223383D01*
X161730801Y-115357638D01*
X161586842Y-115411420D01*
X161465205Y-115448336D01*
X161351945Y-115473811D01*
X161228329Y-115489769D01*
X161075622Y-115498133D01*
X160875089Y-115500830D01*
X160719477Y-115500503D01*
X160481408Y-115497914D01*
X160302016Y-115491473D01*
X160161840Y-115478874D01*
X160041421Y-115457811D01*
X159921296Y-115425976D01*
X159820708Y-115393982D01*
X159481813Y-115253020D01*
X159195751Y-115067725D01*
X158944013Y-114825673D01*
X158903676Y-114778438D01*
X158797055Y-114658276D01*
X158732841Y-114603073D01*
X158712216Y-114611387D01*
X158736363Y-114681781D01*
X158806467Y-114812812D01*
X158835341Y-114861580D01*
X159028176Y-115127250D01*
X159259425Y-115340992D01*
X159539260Y-115509814D01*
X159877856Y-115640722D01*
X160027951Y-115682992D01*
X160190882Y-115715673D01*
X160398340Y-115743988D01*
X160628141Y-115766324D01*
X160858101Y-115781066D01*
X161066036Y-115786603D01*
X161229764Y-115781322D01*
X161286093Y-115774478D01*
X161628928Y-115704142D01*
X161908983Y-115621283D01*
X162141344Y-115520104D01*
X162341094Y-115394807D01*
X162406345Y-115343977D01*
X162606660Y-115133660D01*
X162739448Y-114891317D01*
X162801750Y-114626859D01*
X162790609Y-114350194D01*
X162750444Y-114191382D01*
X162642731Y-113978665D01*
X162469299Y-113771411D01*
X162242557Y-113577222D01*
X161974910Y-113403697D01*
X161678767Y-113258438D01*
X161366532Y-113149044D01*
X161050614Y-113083117D01*
X160920380Y-113070254D01*
X160575159Y-113074124D01*
X160264983Y-113135937D01*
X159967686Y-113260393D01*
X159931589Y-113279889D01*
X159753606Y-113367539D01*
X159617738Y-113405491D01*
X159507238Y-113395457D01*
X159405356Y-113339151D01*
X159399132Y-113334323D01*
X159302003Y-113213255D01*
X159266039Y-113061816D01*
X159287742Y-112893533D01*
X159363616Y-112721931D01*
X159490164Y-112560538D01*
X159628909Y-112445560D01*
X159787740Y-112349627D01*
X159951091Y-112279545D01*
X160135131Y-112231721D01*
X160356031Y-112202565D01*
X160629963Y-112188483D01*
X160797631Y-112185932D01*
X161109553Y-112189054D01*
X161364015Y-112205482D01*
X161581112Y-112238876D01*
X161780940Y-112292894D01*
X161983594Y-112371195D01*
X162095887Y-112422309D01*
X162262503Y-112522065D01*
X162445987Y-112664827D01*
X162620531Y-112828121D01*
X162760332Y-112989478D01*
X162782049Y-113019827D01*
X162838449Y-113089587D01*
X162864394Y-113096039D01*
X162859519Y-113048002D01*
X162823454Y-112954300D01*
X162787793Y-112881918D01*
X162595796Y-112600053D01*
X162340328Y-112361385D01*
X162024482Y-112168160D01*
X161651354Y-112022620D01*
X161571899Y-111999911D01*
X161342658Y-111954309D01*
X161066611Y-111924679D01*
X160767275Y-111911277D01*
X160468166Y-111914359D01*
G36*
X157735696Y-112994985D02*
X157730093Y-113000144D01*
X157737176Y-113044415D01*
X157756576Y-113150529D01*
X157785515Y-113303645D01*
X157821215Y-113488924D01*
X157829988Y-113533998D01*
X157866548Y-113733577D01*
X157895194Y-113913509D01*
X157913356Y-114055784D01*
X157918459Y-114142389D01*
X157917911Y-114149715D01*
X157874489Y-114235739D01*
X157781997Y-114286758D01*
X157661099Y-114303056D01*
X157532457Y-114284915D01*
X157416736Y-114232617D01*
X157334600Y-114146446D01*
X157331983Y-114141700D01*
X157308506Y-114074515D01*
X157274643Y-113947364D01*
X157234522Y-113777076D01*
X157192269Y-113580479D01*
X157182339Y-113531598D01*
X157076126Y-113002646D01*
X156914648Y-112990630D01*
X156812463Y-112991629D01*
X156757212Y-113009568D01*
X156753170Y-113018499D01*
X156762959Y-113110490D01*
X156789429Y-113256487D01*
X156828230Y-113438720D01*
X156875014Y-113639423D01*
X156925430Y-113840827D01*
X156975131Y-114025163D01*
X157019766Y-114174664D01*
X157054988Y-114271562D01*
X157064357Y-114289874D01*
X157191485Y-114426467D01*
X157367712Y-114523706D01*
X157571884Y-114576479D01*
X157782847Y-114579675D01*
X157979447Y-114528184D01*
X158003631Y-114516816D01*
X158116027Y-114433642D01*
X158206445Y-114322499D01*
X158212418Y-114311723D01*
X158239426Y-114257208D01*
X158256009Y-114205687D01*
X158261372Y-114143130D01*
X158254720Y-114055509D01*
X158235258Y-113928793D01*
X158202192Y-113748953D01*
X158171461Y-113588800D01*
X158058488Y-113002646D01*
X157894290Y-112990630D01*
X157793693Y-112987812D01*
X157735696Y-112994985D01*
X157735696Y-112994985D01*
G37*
X157735696Y-112994985D02*
X157730093Y-113000144D01*
X157737176Y-113044415D01*
X157756576Y-113150529D01*
X157785515Y-113303645D01*
X157821215Y-113488924D01*
X157829988Y-113533998D01*
X157866548Y-113733577D01*
X157895194Y-113913509D01*
X157913356Y-114055784D01*
X157918459Y-114142389D01*
X157917911Y-114149715D01*
X157874489Y-114235739D01*
X157781997Y-114286758D01*
X157661099Y-114303056D01*
X157532457Y-114284915D01*
X157416736Y-114232617D01*
X157334600Y-114146446D01*
X157331983Y-114141700D01*
X157308506Y-114074515D01*
X157274643Y-113947364D01*
X157234522Y-113777076D01*
X157192269Y-113580479D01*
X157182339Y-113531598D01*
X157076126Y-113002646D01*
X156914648Y-112990630D01*
X156812463Y-112991629D01*
X156757212Y-113009568D01*
X156753170Y-113018499D01*
X156762959Y-113110490D01*
X156789429Y-113256487D01*
X156828230Y-113438720D01*
X156875014Y-113639423D01*
X156925430Y-113840827D01*
X156975131Y-114025163D01*
X157019766Y-114174664D01*
X157054988Y-114271562D01*
X157064357Y-114289874D01*
X157191485Y-114426467D01*
X157367712Y-114523706D01*
X157571884Y-114576479D01*
X157782847Y-114579675D01*
X157979447Y-114528184D01*
X158003631Y-114516816D01*
X158116027Y-114433642D01*
X158206445Y-114322499D01*
X158212418Y-114311723D01*
X158239426Y-114257208D01*
X158256009Y-114205687D01*
X158261372Y-114143130D01*
X158254720Y-114055509D01*
X158235258Y-113928793D01*
X158202192Y-113748953D01*
X158171461Y-113588800D01*
X158058488Y-113002646D01*
X157894290Y-112990630D01*
X157793693Y-112987812D01*
X157735696Y-112994985D01*
G36*
X155858278Y-112961626D02*
X155666234Y-113027699D01*
X155527427Y-113150638D01*
X155503710Y-113185910D01*
X155436698Y-113315435D01*
X155427234Y-113397641D01*
X155477626Y-113440499D01*
X155580862Y-113452030D01*
X155678742Y-113443364D01*
X155733184Y-113421713D01*
X155737170Y-113412954D01*
X155771646Y-113329036D01*
X155859155Y-113265462D01*
X155975821Y-113228697D01*
X156097763Y-113225207D01*
X156201106Y-113261457D01*
X156224792Y-113280927D01*
X156271046Y-113348547D01*
X156264107Y-113414557D01*
X156198224Y-113486485D01*
X156067647Y-113571857D01*
X155956240Y-113632465D01*
X155810453Y-113715776D01*
X155688481Y-113798777D01*
X155610110Y-113867514D01*
X155596164Y-113886465D01*
X155546901Y-114049212D01*
X155564989Y-114217128D01*
X155643489Y-114371118D01*
X155775462Y-114492083D01*
X155826385Y-114520004D01*
X156012011Y-114572543D01*
X156225704Y-114578440D01*
X156433120Y-114538094D01*
X156499965Y-114512177D01*
X156645627Y-114410511D01*
X156732760Y-114271406D01*
X156753170Y-114153576D01*
X156739399Y-114103514D01*
X156684621Y-114081423D01*
X156596862Y-114077261D01*
X156486461Y-114087662D01*
X156442330Y-114121118D01*
X156440554Y-114133661D01*
X156406195Y-114214375D01*
X156317973Y-114272345D01*
X156198169Y-114302432D01*
X156069064Y-114299497D01*
X155952941Y-114258400D01*
X155939026Y-114249334D01*
X155865827Y-114175259D01*
X155861031Y-114099767D01*
X155927008Y-114018937D01*
X156066126Y-113928850D01*
X156162357Y-113879829D01*
X156356593Y-113776991D01*
X156486024Y-113682295D01*
X156561434Y-113584030D01*
X156593608Y-113470487D01*
X156596862Y-113408051D01*
X156580999Y-113287659D01*
X156523095Y-113180512D01*
X156465756Y-113112437D01*
X156380891Y-113029137D01*
X156300580Y-112983241D01*
X156192938Y-112960701D01*
X156103037Y-112952622D01*
X155858278Y-112961626D01*
X155858278Y-112961626D01*
G37*
X155858278Y-112961626D02*
X155666234Y-113027699D01*
X155527427Y-113150638D01*
X155503710Y-113185910D01*
X155436698Y-113315435D01*
X155427234Y-113397641D01*
X155477626Y-113440499D01*
X155580862Y-113452030D01*
X155678742Y-113443364D01*
X155733184Y-113421713D01*
X155737170Y-113412954D01*
X155771646Y-113329036D01*
X155859155Y-113265462D01*
X155975821Y-113228697D01*
X156097763Y-113225207D01*
X156201106Y-113261457D01*
X156224792Y-113280927D01*
X156271046Y-113348547D01*
X156264107Y-113414557D01*
X156198224Y-113486485D01*
X156067647Y-113571857D01*
X155956240Y-113632465D01*
X155810453Y-113715776D01*
X155688481Y-113798777D01*
X155610110Y-113867514D01*
X155596164Y-113886465D01*
X155546901Y-114049212D01*
X155564989Y-114217128D01*
X155643489Y-114371118D01*
X155775462Y-114492083D01*
X155826385Y-114520004D01*
X156012011Y-114572543D01*
X156225704Y-114578440D01*
X156433120Y-114538094D01*
X156499965Y-114512177D01*
X156645627Y-114410511D01*
X156732760Y-114271406D01*
X156753170Y-114153576D01*
X156739399Y-114103514D01*
X156684621Y-114081423D01*
X156596862Y-114077261D01*
X156486461Y-114087662D01*
X156442330Y-114121118D01*
X156440554Y-114133661D01*
X156406195Y-114214375D01*
X156317973Y-114272345D01*
X156198169Y-114302432D01*
X156069064Y-114299497D01*
X155952941Y-114258400D01*
X155939026Y-114249334D01*
X155865827Y-114175259D01*
X155861031Y-114099767D01*
X155927008Y-114018937D01*
X156066126Y-113928850D01*
X156162357Y-113879829D01*
X156356593Y-113776991D01*
X156486024Y-113682295D01*
X156561434Y-113584030D01*
X156593608Y-113470487D01*
X156596862Y-113408051D01*
X156580999Y-113287659D01*
X156523095Y-113180512D01*
X156465756Y-113112437D01*
X156380891Y-113029137D01*
X156300580Y-112983241D01*
X156192938Y-112960701D01*
X156103037Y-112952622D01*
X155858278Y-112961626D01*
G36*
X154267911Y-112983508D02*
X154101897Y-112986942D01*
X153993256Y-112996752D01*
X153931600Y-113016286D01*
X153906537Y-113048887D01*
X153907678Y-113097901D01*
X153924634Y-113166673D01*
X153925184Y-113168723D01*
X153947173Y-113218692D01*
X153992459Y-113245161D01*
X154081572Y-113255343D01*
X154175412Y-113256646D01*
X154402078Y-113256646D01*
X154441497Y-113442261D01*
X154465039Y-113556507D01*
X154498547Y-113723482D01*
X154537235Y-113919167D01*
X154570014Y-114087030D01*
X154659113Y-114546184D01*
X154827655Y-114546184D01*
X154931889Y-114542414D01*
X154976491Y-114523792D01*
X154979887Y-114479350D01*
X154975370Y-114458261D01*
X154960419Y-114389326D01*
X154933614Y-114260181D01*
X154898325Y-114087272D01*
X154857924Y-113887046D01*
X154843188Y-113813492D01*
X154731832Y-113256646D01*
X154941424Y-113256646D01*
X155069516Y-113251833D01*
X155133575Y-113228053D01*
X155147564Y-113171293D01*
X155126386Y-113071030D01*
X155114788Y-113037622D01*
X155092840Y-113013968D01*
X155048580Y-112998387D01*
X154970046Y-112989194D01*
X154845275Y-112984706D01*
X154662306Y-112983238D01*
X154501689Y-112983107D01*
X154267911Y-112983508D01*
X154267911Y-112983508D01*
G37*
X154267911Y-112983508D02*
X154101897Y-112986942D01*
X153993256Y-112996752D01*
X153931600Y-113016286D01*
X153906537Y-113048887D01*
X153907678Y-113097901D01*
X153924634Y-113166673D01*
X153925184Y-113168723D01*
X153947173Y-113218692D01*
X153992459Y-113245161D01*
X154081572Y-113255343D01*
X154175412Y-113256646D01*
X154402078Y-113256646D01*
X154441497Y-113442261D01*
X154465039Y-113556507D01*
X154498547Y-113723482D01*
X154537235Y-113919167D01*
X154570014Y-114087030D01*
X154659113Y-114546184D01*
X154827655Y-114546184D01*
X154931889Y-114542414D01*
X154976491Y-114523792D01*
X154979887Y-114479350D01*
X154975370Y-114458261D01*
X154960419Y-114389326D01*
X154933614Y-114260181D01*
X154898325Y-114087272D01*
X154857924Y-113887046D01*
X154843188Y-113813492D01*
X154731832Y-113256646D01*
X154941424Y-113256646D01*
X155069516Y-113251833D01*
X155133575Y-113228053D01*
X155147564Y-113171293D01*
X155126386Y-113071030D01*
X155114788Y-113037622D01*
X155092840Y-113013968D01*
X155048580Y-112998387D01*
X154970046Y-112989194D01*
X154845275Y-112984706D01*
X154662306Y-112983238D01*
X154501689Y-112983107D01*
X154267911Y-112983508D01*
D14*
X168378142Y-117562333D02*
X168425761Y-117514714D01*
X168473380Y-117371857D01*
X168473380Y-117276619D01*
X168425761Y-117133761D01*
X168330523Y-117038523D01*
X168235285Y-116990904D01*
X168044809Y-116943285D01*
X167901952Y-116943285D01*
X167711476Y-116990904D01*
X167616238Y-117038523D01*
X167521000Y-117133761D01*
X167473380Y-117276619D01*
X167473380Y-117371857D01*
X167521000Y-117514714D01*
X167568619Y-117562333D01*
X167473380Y-117895666D02*
X167473380Y-118514714D01*
X167854333Y-118181380D01*
X167854333Y-118324238D01*
X167901952Y-118419476D01*
X167949571Y-118467095D01*
X168044809Y-118514714D01*
X168282904Y-118514714D01*
X168378142Y-118467095D01*
X168425761Y-118419476D01*
X168473380Y-118324238D01*
X168473380Y-118038523D01*
X168425761Y-117943285D01*
X168378142Y-117895666D01*
X165842142Y-121266671D02*
X165842142Y-122409528D01*
X166413571Y-121838100D02*
X165270714Y-121838100D01*
M02*
